<svg xmlns="http://www.w3.org/2000/svg" width="32" height="32" viewBox="0 0 32 32">
  <path id="Ico_excel" d="M31.4,4.244H20.684V6.265h3.16v3.2h-3.16V10.48h3.16v3.2h-3.16v1.047h3.16v3.027h-3.16v1.213h3.16V22h-3.16v1.213h3.16v3.052h-3.16v2.226H31.4c.169-.052.311-.255.424-.608A3.027,3.027,0,0,0,32,27.021V4.613c0-.174-.059-.278-.172-.315A1.442,1.442,0,0,0,31.4,4.244ZM30.013,26.264H24.871V23.216h5.143v3.049Zm0-4.262H24.871V18.967h5.143Zm0-4.248H24.871V14.741h5.143v3.014Zm0-4.074H24.871v-3.2h5.143v3.2h0Zm0-4.236H24.871V6.266h5.143V9.444ZM0,3.74V29l18.88,3.326v-32L0,3.751ZM11.191,22.85q-.108-.3-1.011-2.53c-.6-1.489-.96-2.355-1.065-2.6H9.081l-2.025,4.91-2.707-.186L7.56,16.33,4.62,10.218l2.76-.148L9.2,14.852H9.24l2.06-5,2.852-.183-3.4,6.614,3.5,6.747-3.065-.183Z" transform="translate(0 -0.329)" fill="#555"/>
</svg>
