<svg xmlns="http://www.w3.org/2000/svg" width="56" height="56.001" viewBox="0 0 56 56.001">
  <g id="Icon" transform="translate(-43 -6520)">
    <rect id="Frame" width="56" height="56" transform="translate(43 6520)" fill="none"/>
    <path id="Icon_simple-adobephotoshop" data-name="Icon simple-adobephotoshop" d="M0,.45v56H56V.45ZM2.333,2.843H53.667V54.057H2.333Zm11.2,10.721c0-.16.327-.278.523-.278,1.5-.079,3.705-.12,6.015-.12,6.468,0,8.983,3.638,8.983,8.295,0,6.079-4.3,8.687-9.571,8.687-.887,0-1.19-.041-1.808-.041V39.3c0,.2-.077.278-.268.278H13.8c-.194,0-.268-.072-.268-.27V13.565Zm4.142,12.712c.537.038.961.038,1.89.038,2.73,0,5.3-.986,5.3-4.777,0-3.039-1.834-4.581-4.951-4.581-.924,0-1.808.038-2.233.079v9.247Zm20.083-2.843c-1.848,0-2.464.948-2.464,1.737,0,.869.42,1.46,2.886,2.764,3.659,1.819,4.811,3.554,4.811,6.119,0,3.829-2.847,5.887-6.7,5.887a9.983,9.983,0,0,1-4.783-1.029c-.152-.079-.187-.2-.187-.395V35.007c0-.239.112-.318.266-.2a8.44,8.44,0,0,0,4.695,1.422c1.848,0,2.618-.79,2.618-1.857,0-.869-.537-1.62-2.886-2.884-3.313-1.627-4.7-3.279-4.7-6.048,0-3.08,2.347-5.648,6.428-5.648a10.632,10.632,0,0,1,4.186.67.526.526,0,0,1,.233.474v3.279c0,.2-.117.318-.35.239a8.191,8.191,0,0,0-4.067-1.029Z" transform="translate(43 6519.551)" fill="#555"/>
  </g>
</svg>
