<svg xmlns="http://www.w3.org/2000/svg" width="56" height="56.001" viewBox="0 0 56 56.001">
  <g id="Icon" transform="translate(-43 -6520)">
    <rect id="Frame" width="56" height="56" transform="translate(43 6520)" fill="none"/>
    <path id="Icon_simple-adobeillustrator" data-name="Icon simple-adobeillustrator" d="M0,.45v56H56V.45ZM2.333,2.843H53.667V54.057H2.333ZM19.425,32.159l-1.848,7.175c-.04.2-.117.244-.345.244H13.806c-.233,0-.268-.079-.233-.354l6.627-23.8a7.561,7.561,0,0,0,.229-1.994c0-.158.077-.239.194-.239h4.891c.154,0,.233.043.271.239l7.432,25.832c.04.2,0,.316-.194.316h-3.85c-.194,0-.308-.048-.345-.206L26.9,32.157H19.418Zm6.505-3.889c-.653-2.647-2.193-8.443-2.772-11.248h-.04c-.5,2.8-1.731,7.538-2.695,11.248Zm10.5-13.3a2.388,2.388,0,1,1,4.774,0,2.263,2.263,0,0,1-2.427,2.448,2.222,2.222,0,0,1-2.357-2.448Zm.261,5.442c0-.191.077-.263.271-.263h3.663c.205,0,.28.079.28.278V39.32c0,.2-.037.278-.268.278H37.021c-.233,0-.31-.12-.31-.311V20.409Z" transform="translate(43 6519.551)" fill="#555"/>
  </g>
</svg>
