<svg xmlns="http://www.w3.org/2000/svg" width="23.997" height="24" viewBox="0 0 23.997 24">
  <path id="Icon_awesome-blog" data-name="Icon awesome-blog" d="M8.072,10.631A1.127,1.127,0,0,0,6.75,11.747v2.363a1.126,1.126,0,0,0,.783,1.031A2.25,2.25,0,1,1,4.5,17.25V5.625A1.122,1.122,0,0,0,3.375,4.5H1.125A1.122,1.122,0,0,0,0,5.625V17.25a6.752,6.752,0,1,0,8.072-6.619ZM9.8,0a.754.754,0,0,0-.8.75V2.231a.742.742,0,0,0,.7.745A12.039,12.039,0,0,1,21,14.3a.749.749,0,0,0,.745.7h1.5a.754.754,0,0,0,.75-.8A15.036,15.036,0,0,0,9.8,0Zm.014,4.5A.756.756,0,0,0,9,5.254v1.5a.747.747,0,0,0,.694.745,7.487,7.487,0,0,1,6.792,6.806.753.753,0,0,0,.745.689h1.509a.759.759,0,0,0,.755-.811A10.547,10.547,0,0,0,9.811,4.5Z" transform="translate(0 0.002)" fill="#fafafa"/>
</svg>
