<svg xmlns="http://www.w3.org/2000/svg" width="56" height="56" viewBox="0 0 56 56">
  <g id="Icon" transform="translate(-43 -6520)">
    <rect id="Frame" width="56" height="56" transform="translate(43 6520)" fill="none"/>
    <path id="Icon_awesome-php" data-name="Icon awesome-php" d="M28,7.636c15,0,26.53,6.318,26.53,13.256S42.989,34.149,28,34.149,1.47,27.831,1.47,20.893,13.011,7.636,28,7.636m0-1.47c-15.461,0-28,6.589-28,14.726S12.539,35.619,28,35.619,56,29.03,56,20.893,43.461,6.166,28,6.166ZM19.093,19.711c-.691,3.544-3.132,3.176-6.134,3.176l1.2-6.177C17.483,16.71,19.74,16.351,19.093,19.711ZM8.523,29.144h3.211l.761-3.92c3.6,0,5.828.263,7.893-1.671,2.284-2.1,2.879-5.836,1.251-7.709a5.12,5.12,0,0,0-4.069-1.461H11.384Zm16.249-18.69h3.194l-.761,3.92c2.756,0,5.311-.2,6.545.936,1.3,1.19.674,2.712-.726,9.9H29.785c1.348-6.948,1.6-7.525,1.111-8.05-.472-.507-1.549-.4-4.148-.4L25.1,25.206H21.91l2.861-14.753Zm19.416,9.258c-.7,3.6-3.211,3.176-6.134,3.176l1.2-6.177C42.6,16.71,44.835,16.351,44.188,19.711Zm-10.57,9.433h3.22l.761-3.92c3.78,0,5.871.219,7.893-1.671,2.284-2.1,2.879-5.836,1.251-7.709a5.12,5.12,0,0,0-4.069-1.461H36.488l-2.87,14.761Z" transform="translate(43 6527.834)" fill="#555"/>
  </g>
</svg>
