<svg xmlns="http://www.w3.org/2000/svg" width="16" height="16" viewBox="0 0 16 16">
  <path id="Icon_awesome-pinterest-square" data-name="Icon awesome-pinterest-square" d="M16,3.964V16.536a1.715,1.715,0,0,1-1.714,1.714H5.514a9.151,9.151,0,0,0,.979-2.118c.107-.411.546-2.086.546-2.086A2.345,2.345,0,0,0,9.05,15.054c2.646,0,4.55-2.432,4.55-5.454A5.147,5.147,0,0,0,8.193,4.536C4.407,4.536,2.4,7.075,2.4,9.843a3.935,3.935,0,0,0,1.779,3.4c.168.079.254.043.293-.118.029-.121.179-.718.243-.993a.259.259,0,0,0-.061-.25,3.419,3.419,0,0,1-.654-2A3.8,3.8,0,0,1,7.961,6.071a3.463,3.463,0,0,1,3.664,3.568c0,2.371-1.2,4.014-2.757,4.014a1.276,1.276,0,0,1-1.3-1.586,17.723,17.723,0,0,0,.725-2.921c0-1.893-2.7-1.632-2.7.893a3.2,3.2,0,0,0,.261,1.3c-1.121,4.743-1.289,4.8-1.057,6.879l.079.029H1.714A1.715,1.715,0,0,1,0,16.536V3.964A1.715,1.715,0,0,1,1.714,2.25H14.286A1.715,1.715,0,0,1,16,3.964Z" transform="translate(0 -2.25)" fill="#30312d"/>
</svg>
