<svg xmlns="http://www.w3.org/2000/svg" width="56" height="56" viewBox="0 0 56 56">
  <g id="Icon" transform="translate(-43 -6519.68)">
    <rect id="Frame" width="55.984" height="55.68" transform="translate(43 6520)" fill="none"/>
    <path id="Icon_simple-jquery" data-name="Icon simple-jquery" d="M3.574,13.049C-1.385,20.008-.77,29.06,3.02,36.451c.086.18.182.351.276.523a3.648,3.648,0,0,0,.18.34,1.914,1.914,0,0,0,.11.189c.061.119.126.233.189.347l.367.6c.068.112.133.221.21.333.128.214.28.427.413.641.061.089.117.178.185.267q.34.521.724,1.013c.182.244.364.481.561.719.063.087.133.173.2.26l.516.614c.063.071.126.153.194.226.229.269.472.532.715.8,0,0,.007.009.012.016a7.219,7.219,0,0,0,.99,1c.187.187.374.374.572.557l.236.221c.259.237.518.475.792.7,0,0,.007,0,.012.007l.133.114c.238.2.479.406.724.593l.292.24c.2.155.4.3.607.456l.318.237c.217.16.448.317.67.472.082.057.163.114.248.167l.068.052.656.422.28.183c.343.214.684.418,1.023.618.1.048.2.1.287.155.252.141.514.285.768.418.14.078.285.144.43.214.175.1.357.189.544.285a.767.767,0,0,1,.131.052c.077.034.149.071.224.107.28.137.572.267.876.4a1.927,1.927,0,0,1,.178.078c.336.144.673.281,1.021.415.079.023.163.062.245.091.315.116.64.235.96.347l.117.041c.357.119.71.233,1.072.342.084.023.17.052.259.075.371.11.731.24,1.1.31,23.963,4.267,30.927-14.076,30.927-14.076-5.851,7.443-16.232,9.405-26.065,7.222-.364-.082-.729-.2-1.1-.3q-.667-.192-1.324-.413L26,45.092c-.318-.1-.624-.221-.934-.338q-.127-.051-.257-.094c-.343-.135-.677-.274-1.009-.418-.072-.023-.133-.055-.206-.082q-.423-.19-.843-.388c-.086-.036-.163-.075-.248-.119-.22-.1-.439-.214-.654-.324q-.221-.1-.437-.219c-.264-.137-.528-.285-.792-.427-.079-.055-.17-.1-.262-.151q-.517-.3-1.023-.614-.141-.086-.276-.18-.372-.224-.729-.47c-.082-.052-.156-.11-.241-.167q-.348-.235-.687-.484c-.1-.078-.2-.151-.308-.228-.206-.157-.413-.308-.619-.475l-.276-.214q-.4-.313-.78-.641a.6.6,0,0,0-.086-.068l-.81-.721-.234-.214c-.192-.189-.388-.372-.584-.559l-.227-.228q-.37-.36-.722-.737l-.035-.037c-.248-.265-.488-.534-.731-.808-.063-.071-.121-.146-.187-.221l-.528-.632q-.4-.506-.794-1.022C5.036,26.539,3.062,16.5,7.427,8.264M18.958,7.187c-3.594,5.04-3.391,11.781-.593,17.111a20.669,20.669,0,0,0,1.581,2.583,12.156,12.156,0,0,0,1.85,2.25c.25.278.521.548.8.819l.21.205q.4.376.817.742l.035.03q.472.4.967.78c.079.052.147.114.224.167.327.246.656.484,1,.719l.035.021c.145.1.3.2.462.3.065.041.14.1.21.137.248.155.49.3.74.45.04.016.075.037.112.052.21.125.439.246.659.358.077.046.152.08.231.123.156.075.311.155.46.233l.075.032c.315.151.638.292.953.434.079.03.147.055.215.087.259.11.523.214.782.313.117.039.227.084.336.119.238.087.488.167.724.246l.327.1a8.048,8.048,0,0,0,1.046.294C51.717,38.886,56,24.967,56,24.967c-3.856,5.422-11.318,8-19.271,5.987q-.527-.133-1.046-.3c-.112-.03-.21-.064-.318-.1-.243-.082-.493-.162-.729-.249L34.3,30.19c-.262-.1-.528-.2-.782-.308-.079-.034-.152-.057-.213-.091-.327-.144-.656-.285-.974-.438l-.481-.244-.278-.137c-.215-.11-.413-.224-.619-.342a1.46,1.46,0,0,1-.145-.078c-.248-.151-.5-.3-.74-.452-.079-.043-.152-.1-.227-.141l-.486-.31c-.336-.228-.666-.475-1-.712-.075-.066-.147-.121-.22-.18a21.706,21.706,0,0,1-7.563-10.514,16.005,16.005,0,0,1,1.306-13.1M31.895,2.8a10.327,10.327,0,0,0-.864,10.165,14.552,14.552,0,0,0,8.417,7.678c.152.057.3.1.455.16l.206.062c.215.066.432.144.654.192,10.22,1.926,12.986-5.127,13.731-6.163-2.434,3.414-6.514,4.233-11.519,3.044a11.51,11.51,0,0,1-1.205-.365A15.016,15.016,0,0,1,40.328,17a15.3,15.3,0,0,1-2.522-1.506C33.322,12.173,30.545,5.839,33.469.679" transform="translate(43 6519)" fill="#555"/>
  </g>
</svg>
