<svg xmlns="http://www.w3.org/2000/svg" width="56" height="56" viewBox="0 0 56 56">
  <g id="Icon" transform="translate(-43 -6520)">
    <rect id="Frame" width="56" height="56" transform="translate(43 6520)" fill="none"/>
    <path id="Icon_simple-mysql" data-name="Icon simple-mysql" d="M38.278,9.889a2.575,2.575,0,0,0-.639.077V10h.033a5.264,5.264,0,0,0,.5.637c.126.25.233.5.359.747l.033-.035a.868.868,0,0,0,.327-.777c-.093-.11-.107-.219-.187-.327-.093-.156-.294-.233-.42-.357ZM13.463,40.675H11.3c-.07-3.645-.287-7.07-.63-10.29h-.019l-3.29,10.29H5.717L2.45,30.385H2.427q-.36,4.631-.455,10.29H0q.193-6.881.957-12.9H3.64l3.115,9.483h.019l3.143-9.483h2.555q.847,7.052,1,12.9Zm9.373-9.52q-1.323,7.158-3.481,10.407-1.687,2.506-3.694,2.5a3.642,3.642,0,0,1-1.321-.322V42.591a5.988,5.988,0,0,0,.9.061,2.176,2.176,0,0,0,1.51-.518,1.88,1.88,0,0,0,.688-1.412,9.359,9.359,0,0,0-.537-2.2l-2.366-7.364H16.66l1.7,5.507a7.394,7.394,0,0,1,.478,2.62,35.6,35.6,0,0,0,1.948-8.127h2.053Zm28.758,9.52H45.458v-12.9h2.065V39.088h4.072Zm-7.747.315-2.371-1.167a5.012,5.012,0,0,0,.6-.583,7.9,7.9,0,0,0,1.512-5.257q0-6.405-5.028-6.407a4.784,4.784,0,0,0-3.85,1.626A7.921,7.921,0,0,0,33.2,34.44q0,3.4,1.339,4.993a4.587,4.587,0,0,0,3.694,1.435,5.932,5.932,0,0,0,1.692-.229l3.092,1.8.84-1.451Zm-7.681-2.9a7.929,7.929,0,0,1-.786-4.051q0-4.876,2.963-4.877a2.493,2.493,0,0,1,2.28,1.167,7.893,7.893,0,0,1,.784,4.02q0,4.914-2.963,4.919A2.494,2.494,0,0,1,36.162,38.1ZM32.3,37.1a3.418,3.418,0,0,1-1.2,2.7,4.731,4.731,0,0,1-3.229,1.05,6.472,6.472,0,0,1-3.67-1.2l.553-1.111a6.26,6.26,0,0,0,2.777.765,2.917,2.917,0,0,0,1.827-.513,1.758,1.758,0,0,0,.7-1.435c0-.77-.537-1.423-1.512-1.972-.905-.5-2.714-1.533-2.714-1.533A3.088,3.088,0,0,1,24.351,31.1a3.2,3.2,0,0,1,1.1-2.532,4.134,4.134,0,0,1,2.847-.968,5.857,5.857,0,0,1,3.267.957l-.5,1.111a6.361,6.361,0,0,0-2.483-.537,2.2,2.2,0,0,0-1.526.481,1.6,1.6,0,0,0-.579,1.223c0,.765.546,1.423,1.554,1.983.917.5,2.77,1.563,2.77,1.563a3.037,3.037,0,0,1,1.512,2.725ZM54.189,23.446a7.154,7.154,0,0,0-3.026.439c-.233.093-.607.093-.639.39.128.124.147.327.257.5a3.58,3.58,0,0,0,.807.95c.327.257.653.5,1,.723.607.373,1.295.595,1.89.971.338.219.684.5,1.027.73.17.117.28.327.5.4V28.5c-.107-.14-.14-.343-.245-.5-.156-.156-.313-.3-.467-.45a7.52,7.52,0,0,0-1.622-1.575c-.5-.341-1.591-.817-1.8-1.388l-.03-.033a6.279,6.279,0,0,0,1.073-.247c.53-.14,1.015-.11,1.563-.247.247-.063.5-.14.747-.219V23.7c-.28-.28-.49-.66-.779-.922a20.691,20.691,0,0,0-2.576-1.92c-.49-.313-1.111-.513-1.626-.779-.187-.093-.5-.14-.607-.3a6.016,6.016,0,0,1-.642-1.2c-.448-.859-.887-1.808-1.276-2.714a16.158,16.158,0,0,0-.793-1.78,15.721,15.721,0,0,0-6.034-5.833,7.6,7.6,0,0,0-2-.639c-.39-.019-.779-.047-1.167-.063A5.661,5.661,0,0,1,37,7.007c-.887-.56-3.183-1.773-3.836-.168-.42,1.013.623,2.011.985,2.525a7.193,7.193,0,0,1,.793,1.167c.11.271.14.548.25.831A18.672,18.672,0,0,0,36,13.454a7.156,7.156,0,0,0,.576.964c.126.17.341.25.39.53a4.542,4.542,0,0,0-.359,1.167,6.912,6.912,0,0,0,.453,5.25c.25.387.845,1.246,1.64.917.7-.28.546-1.167.747-1.948.047-.187.016-.31.112-.436v.035c.219.439.439.856.639,1.3a8.78,8.78,0,0,0,2.023,2.088c.373.28.67.765,1.136.938v-.047h-.035a2.082,2.082,0,0,0-.359-.31,8.037,8.037,0,0,1-.817-.933,20.44,20.44,0,0,1-1.743-2.842c-.257-.49-.471-1.017-.677-1.5-.093-.187-.093-.467-.25-.56a5.758,5.758,0,0,0-.747,1.057,8.914,8.914,0,0,0-.439,2.357c-.063.016-.033,0-.063.033-.5-.121-.67-.639-.856-1.073a6.772,6.772,0,0,1-.14-4.165c.11-.327.576-1.358.39-1.671-.1-.3-.406-.467-.576-.707a5.781,5.781,0,0,1-.56-1c-.373-.873-.56-1.839-.966-2.711a8.081,8.081,0,0,0-.779-1.2,7.851,7.851,0,0,1-.859-1.213c-.077-.17-.187-.453-.063-.639a.266.266,0,0,1,.219-.21c.205-.168.782.051.985.145a7.98,7.98,0,0,1,1.545.779c.219.154.455.45.735.527h.327c.5.11,1.062.033,1.528.17A9.984,9.984,0,0,1,41.4,9.618a13.891,13.891,0,0,1,4.865,5.334c.187.359.268.688.439,1.062.327.77.73,1.547,1.062,2.291A10.16,10.16,0,0,0,48.881,20.4c.233.327,1.171.5,1.591.667a11.336,11.336,0,0,1,1.073.439c.537.327,1.059.7,1.563,1.059.257.177,1.034.567,1.08.882Z" transform="translate(43 6522.961)" fill="#555"/>
  </g>
</svg>
