<svg xmlns="http://www.w3.org/2000/svg" width="56" height="56.001" viewBox="0 0 56 56.001">
  <g id="Icon" transform="translate(-43 -6519.999)">
    <rect id="Frame" width="56" height="56" transform="translate(43 6520)" fill="none"/>
    <path id="Icon_simple-visualstudiocode" data-name="Icon simple-visualstudiocode" d="M54.016,6.015,42.49.44a3.472,3.472,0,0,0-3.978.68L16.438,21.362,6.825,14.026a2.322,2.322,0,0,0-2.977.134L.763,16.979a2.354,2.354,0,0,0,0,3.469L9.1,28.094.761,35.741a2.354,2.354,0,0,0,0,3.469L3.85,42.027a2.322,2.322,0,0,0,2.977.134l9.613-7.337L38.514,55.065a3.468,3.468,0,0,0,3.976.68L54.021,50.17A3.52,3.52,0,0,0,56,47V9.187a3.52,3.52,0,0,0-1.984-3.171ZM42.009,40.873,25.261,28.094,42.009,15.316V40.873Z" transform="translate(43 6519.906)" fill="#555"/>
  </g>
</svg>
