<svg xmlns="http://www.w3.org/2000/svg" width="33" height="32" viewBox="0 0 33 32">
  <path id="Ico_powerpoint" d="M32.291,5.687H20.545v4.483A4.039,4.039,0,0,1,23.1,9.343V13.7h4.227a4.379,4.379,0,0,1-1.239,3.086,4.158,4.158,0,0,1-3.008,1.289,4.346,4.346,0,0,1-2.515-.865v3H29.8v1.471H20.558V23.5h9.233v1.452H20.552v3.293H32.3c.476,0,.7-.256.7-.756V6.4c0-.481-.225-.718-.7-.718Zm-8.531,7.3v-4.4A4.182,4.182,0,0,1,26.768,9.87a4.4,4.4,0,0,1,1.246,3.116Zm-12.408.073a1.361,1.361,0,0,0-.362-.664,1.5,1.5,0,0,0-.664-.346,3.545,3.545,0,0,0-.949-.127l-.99.02v4.22h.036a9.528,9.528,0,0,0,1.134,0,2.594,2.594,0,0,0,1.112-.317,1.881,1.881,0,0,0,.771-1.286,3.635,3.635,0,0,0-.088-1.563v.063ZM0,4.363V29.617l18.821,3.328v-32Zm14.043,11.38a3.834,3.834,0,0,1-2.316,2.343,8.888,8.888,0,0,1-3.34.393v4.815L5.911,23V9.77l3.931-.21A5.948,5.948,0,0,1,12,9.813a2.956,2.956,0,0,1,1.682,1.3,4.711,4.711,0,0,1,.7,2.259A5.654,5.654,0,0,1,14.043,15.743Z" transform="translate(0 -0.945)" fill="#555"/>
</svg>
