<svg xmlns="http://www.w3.org/2000/svg" width="18" height="18" viewBox="0 0 18 18">
  <path id="Ico_vscode" d="M17.362,2,13.657.2a1.116,1.116,0,0,0-1.279.219L5.283,6.93,2.193,4.571a.746.746,0,0,0-.957.043l-.991.906a.757.757,0,0,0,0,1.115l2.68,2.458L.244,11.551a.757.757,0,0,0,0,1.115l.992.905a.746.746,0,0,0,.957.043l3.09-2.358,7.095,6.506a1.115,1.115,0,0,0,1.278.219l3.706-1.792A1.131,1.131,0,0,0,18,15.17V3.016A1.131,1.131,0,0,0,17.362,2ZM13.5,13.2,8.119,9.093,13.5,4.986V13.2Z" transform="translate(0.001 -0.093)" fill="#555"/>
</svg>
