<svg xmlns="http://www.w3.org/2000/svg" width="46" height="46" viewBox="0 0 46 46">
  <g id="Icon" transform="translate(-43 -6520)">
    <rect id="Frame" width="46" height="46" transform="translate(43 6520)" fill="none"/>
    <path id="Icon_awesome-github" data-name="Icon awesome-github" d="M15.386,37.6c0,.19-.213.342-.482.342-.306.029-.519-.124-.519-.342,0-.19.213-.342.482-.342C15.145,37.231,15.386,37.383,15.386,37.6ZM12.5,37.174c-.065.19.121.409.4.466a.43.43,0,0,0,.575-.19c.056-.19-.121-.409-.4-.495A.471.471,0,0,0,12.5,37.174Zm4.1-.162c-.269.067-.454.247-.427.466.028.19.269.314.547.247s.454-.247.427-.438S16.87,36.983,16.6,37.012ZM22.7.563C9.84.563,0,10.578,0,23.771A23.812,23.812,0,0,0,15.72,46.524c1.187.219,1.6-.533,1.6-1.151,0-.59-.028-3.843-.028-5.84,0,0-6.492,1.427-7.855-2.835,0,0-1.057-2.768-2.578-3.481,0,0-2.124-1.493.148-1.465a4.876,4.876,0,0,1,3.58,2.454c2.031,3.672,5.435,2.616,6.761,1.988a5.339,5.339,0,0,1,1.484-3.205c-5.184-.59-10.415-1.36-10.415-10.511a7.3,7.3,0,0,1,2.189-5.6,9.2,9.2,0,0,1,.241-6.459c1.938-.618,6.4,2.568,6.4,2.568a21.382,21.382,0,0,1,11.648,0s4.461-3.2,6.4-2.568a9.2,9.2,0,0,1,.241,6.459c1.484,1.684,2.393,3,2.393,5.6,0,9.179-5.462,9.911-10.647,10.511A5.7,5.7,0,0,1,28.861,37.4c0,3.205-.028,7.172-.028,7.952,0,.618.427,1.37,1.6,1.151C39.712,43.347,46,34.32,46,23.771A23.018,23.018,0,0,0,22.7.563ZM9.015,33.369c-.121.1-.093.314.065.495.148.152.362.219.482.1.121-.1.093-.314-.065-.495C9.348,33.312,9.135,33.245,9.015,33.369Zm-1-.77c-.065.124.028.276.213.371a.272.272,0,0,0,.4-.067c.065-.124-.028-.276-.213-.371C8.226,32.475,8.078,32.5,8.013,32.6Zm3,3.386c-.148.124-.093.409.121.59.213.219.482.247.6.1.121-.124.065-.409-.121-.59C11.417,35.861,11.138,35.832,11.018,35.985Zm-1.057-1.4c-.148.1-.148.342,0,.561s.4.314.519.219a.442.442,0,0,0,0-.59C10.35,34.558,10.109,34.463,9.96,34.586Z" transform="translate(43 6519.438)" fill="#555"/>
  </g>
</svg>
