<svg xmlns="http://www.w3.org/2000/svg" width="56" height="56" viewBox="0 0 56 56">
  <g id="Icon" transform="translate(-42.563 -6520)">
    <rect id="Frame" width="56" height="56" transform="translate(42.563 6520)" fill="none"/>
    <g id="Icon_feather-figma" data-name="Icon feather-figma" transform="translate(48.063 6517)">
      <g id="パス_264" data-name="パス 264" transform="translate(0 0)" fill="none" stroke-linecap="round" stroke-linejoin="round">
        <path d="M7.5,10.766A7.766,7.766,0,0,1,15.266,3h7.766V18.531H15.266A7.766,7.766,0,0,1,7.5,10.766Z" stroke="none"/>
        <path d="M 20.03124237060547 15.5312442779541 L 20.03124237060547 6.000003814697266 L 15.26562309265137 6.000003814697266 C 12.63785266876221 6.000003814697266 10.50000286102295 8.137853622436523 10.50000286102295 10.76562404632568 C 10.50000286102295 13.39339447021484 12.63785266876221 15.5312442779541 15.26562309265137 15.5312442779541 L 20.03124237060547 15.5312442779541 M 23.03124237060547 18.5312442779541 L 15.26562309265137 18.5312442779541 C 10.97679328918457 18.5312442779541 7.500002861022949 15.05446434020996 7.500002861022949 10.76562404632568 C 7.500002861022949 6.476784229278564 10.97679328918457 3.000004053115845 15.26562309265137 3.000004053115845 L 23.03124237060547 3.000004053115845 L 23.03124237060547 18.5312442779541 Z" stroke="none" fill="#555"/>
      </g>
      <g id="パス_265" data-name="パス 265" transform="translate(4.969 0)" fill="none" stroke-linecap="round" stroke-linejoin="round">
        <path d="M18,3h7.766a7.766,7.766,0,1,1,0,15.531H18Z" stroke="none"/>
        <path d="M 20.99999618530273 6.000002861022949 L 20.99999618530273 15.53124332427979 L 25.76562690734863 15.53124332427979 C 28.39340782165527 15.53124332427979 30.53125762939453 13.39339351654053 30.53125762939453 10.76562309265137 C 30.53125762939453 8.137852668762207 28.39340782165527 6.000002861022949 25.76562690734863 6.000002861022949 L 20.99999618530273 6.000002861022949 M 17.99999618530273 3.000003814697266 L 25.76562690734863 3.000003814697266 C 30.05446624755859 3.000003814697266 33.53125762939453 6.47679328918457 33.53125762939453 10.76562309265137 C 33.53125762939453 15.05446243286133 30.05446624755859 18.53124237060547 25.76562690734863 18.53124237060547 L 17.99999618530273 18.53124237060547 L 17.99999618530273 3.000003814697266 Z" stroke="none" fill="#555"/>
      </g>
      <g id="パス_266" data-name="パス 266" transform="translate(4.969 4.734)" fill="none" stroke-linecap="round" stroke-linejoin="round">
        <path d="M18,21.266a7.766,7.766,0,1,1,7.766,7.766A7.766,7.766,0,0,1,18,21.266Z" stroke="none"/>
        <path d="M 25.76562881469727 16.4999942779541 C 24.49267959594727 16.4999942779541 23.29592895507812 16.99570465087891 22.39581871032715 17.89581489562988 C 21.49571800231934 18.79592514038086 21.00000953674316 19.99267578125 21.00000953674316 21.265625 C 21.00000953674316 23.89339447021484 23.13785934448242 26.0312442779541 25.76562881469727 26.0312442779541 C 27.03857803344727 26.0312442779541 28.23532867431641 25.53553581237793 29.13543891906738 24.63542556762695 C 30.0355396270752 23.73532485961914 30.53124809265137 22.53857421875 30.53124809265137 21.265625 C 30.53124809265137 18.63784408569336 28.39339828491211 16.4999942779541 25.76562881469727 16.4999942779541 M 25.76562881469727 13.4999942779541 C 30.05445861816406 13.4999942779541 33.53125 16.97678565979004 33.53125 21.265625 C 33.53125762939453 25.55446434020996 30.05446815490723 29.03124618530273 25.76562881469727 29.03124618530273 C 21.47679901123047 29.03124618530273 18.00000762939453 25.55446434020996 18.00000762939453 21.265625 L 18 21.265625 C 18 16.97678565979004 21.4767894744873 13.4999942779541 25.76562881469727 13.4999942779541 Z" stroke="none" fill="#555"/>
      </g>
      <g id="パス_267" data-name="パス 267" transform="translate(0 9.469)" fill="none" stroke-linecap="round" stroke-linejoin="round">
        <path d="M7.5,31.766A7.766,7.766,0,0,1,15.266,24h7.766v7.766a7.766,7.766,0,0,1-15.531,0Z" stroke="none"/>
        <path d="M 15.26562309265137 27.00000381469727 C 12.63785362243652 27.00000381469727 10.50000381469727 29.13785171508789 10.50000381469727 31.76562309265137 C 10.50000381469727 34.39339447021484 12.63785362243652 36.53124237060547 15.26562309265137 36.53124237060547 C 17.89339447021484 36.53124237060547 20.03124237060547 34.39339447021484 20.03124237060547 31.76562309265137 L 20.03124237060547 27.00000381469727 L 15.26562309265137 27.00000381469727 M 15.26562309265137 24.00000381469727 L 23.03124237060547 24.00000381469727 L 23.03124237060547 31.76562309265137 C 23.03124237060547 36.05446243286133 19.55446243286133 39.53124237060547 15.26562309265137 39.53124237060547 C 10.97679328918457 39.53124237060547 7.500003814697266 36.05446243286133 7.500003814697266 31.76562309265137 C 7.500003814697266 27.47678375244141 10.97679328918457 24.00000381469727 15.26562309265137 24.00000381469727 Z" stroke="none" fill="#555"/>
      </g>
      <g id="パス_268" data-name="パス 268" transform="translate(0 4.734)" fill="none" stroke-linecap="round" stroke-linejoin="round">
        <path d="M7.5,21.266A7.766,7.766,0,0,1,15.266,13.5h7.766V29.031H15.266A7.766,7.766,0,0,1,7.5,21.266Z" stroke="none"/>
        <path d="M 15.26562309265137 16.4999942779541 C 12.63785362243652 16.4999942779541 10.50000381469727 18.63784408569336 10.50000381469727 21.265625 C 10.50000381469727 22.53857421875 10.99571228027344 23.73532485961914 11.89582252502441 24.63543510437012 C 12.79592323303223 25.53553581237793 13.99267387390137 26.0312442779541 15.26562309265137 26.0312442779541 L 20.03124237060547 26.0312442779541 L 20.03124237060547 16.4999942779541 L 15.26562309265137 16.4999942779541 M 15.26562309265137 13.4999942779541 L 23.03124237060547 13.4999942779541 L 23.03124237060547 29.03124618530273 L 15.26562309265137 29.03124618530273 C 10.97678375244141 29.03125381469727 7.500003814697266 25.55446434020996 7.500003814697266 21.265625 C 7.500003814697266 16.97678565979004 10.97679328918457 13.4999942779541 15.26562309265137 13.4999942779541 Z" stroke="none" fill="#555"/>
      </g>
    </g>
  </g>
</svg>
