<?xml version="1.0" encoding="UTF-8"?>
<svg xmlns="http://www.w3.org/2000/svg" width="23" height="18" viewBox="0 0 23 18">
  <g id="お気に入り_オススメに使える星アイコン_" data-name="お気に入り、オススメに使える星アイコン。" transform="translate(-0.002)">
    <path id="パス_1508" data-name="パス 1508" d="M1.535,277.6a.1.1,0,0,0-.1-.011.094.094,0,0,0-.05.09l.145,2.276a.092.092,0,0,1-.058.093L.062,280.6a.094.094,0,0,0-.019.165l3.778,2.293a.091.091,0,0,0,.089.009.092.092,0,0,0,.057-.07l.569-3.236a.094.094,0,0,0-.033-.089Z" transform="translate(0 -267.855)" fill="#555"></path>
    <path id="パス_1509" data-name="パス 1509" d="M414.342,280.043a.1.1,0,0,1-.059-.093l.146-2.276a.094.094,0,0,0-.153-.08l-2.968,2.078a.094.094,0,0,0-.033.089l.57,3.236a.091.091,0,0,0,.056.07.093.093,0,0,0,.09-.009l3.777-2.293a.092.092,0,0,0,.039-.088.1.1,0,0,0-.058-.077Z" transform="translate(-392.807 -267.855)" fill="#555"></path>
    <path id="パス_1510" data-name="パス 1510" d="M114.383,362.671a13.727,13.727,0,0,1-6.06-1.4l-.59,3.365a17.073,17.073,0,0,0,13.3,0l-.591-3.365A13.718,13.718,0,0,1,114.383,362.671Z" transform="translate(-102.881 -347.98)" fill="#555"></path>
    <path id="パス_1511" data-name="パス 1511" d="M54.774,186.625l.293.593.654.095-.473.461.111.652-.585-.308-.585.308.112-.652-.474-.461.655-.095Z" transform="translate(-51.401 -180.631)" fill="#555"></path>
    <path id="パス_1512" data-name="パス 1512" d="M117.274,82.578l.293.593.655.095-.474.461.112.652-.585-.307-.586.307.113-.652-.474-.461.655-.095Z" transform="translate(-111.099 -80.933)" fill="#555"></path>
    <path id="パス_1513" data-name="パス 1513" d="M417.053,186.625l-.293.593-.654.095.473.461-.112.652.585-.308.586.308-.112-.652.473-.461-.655-.095Z" transform="translate(-397.421 -180.631)" fill="#555"></path>
    <path id="パス_1514" data-name="パス 1514" d="M354.555,82.578l-.293.593-.655.095.473.461-.111.652.585-.307.585.307-.112-.652.474-.461-.655-.095Z" transform="translate(-337.723 -80.933)" fill="#555"></path>
    <path id="パス_1515" data-name="パス 1515" d="M231.4,46.031l.293.593.655.1-.474.461.112.652-.585-.308-.585.308.112-.652-.474-.461.655-.1Z" transform="translate(-220.099 -46.031)" fill="#555"></path>
    <path id="パス_1516" data-name="パス 1516" d="M144.769,118.716a.891.891,0,0,1,1.6,0l.887,1.8a.893.893,0,0,0,.671.488l1.984.288a.891.891,0,0,1,.494,1.521l-1.435,1.4a.892.892,0,0,0-.257.789l.339,1.976a.891.891,0,0,1-1.294.939l-1.775-.933a.891.891,0,0,0-.829,0l-1.774.933a.891.891,0,0,1-1.294-.939l.339-1.976a.892.892,0,0,0-.256-.789l-1.436-1.4a.892.892,0,0,1,.494-1.521l1.984-.288a.892.892,0,0,0,.671-.488Z" transform="translate(-134.163 -115.292)" fill="#555"></path>
  </g>
</svg>
