<?xml version="1.0" encoding="UTF-8"?>
<svg xmlns="http://www.w3.org/2000/svg" id="_1位の無料アイコン" data-name="1位の無料アイコン" width="18" height="18" viewBox="0 0 18 18">
  <path id="パス_1538" data-name="パス 1538" d="M9,0a9,9,0,1,0,9,9A9,9,0,0,0,9,0Zm6.747,5.92a1.172,1.172,0,0,1,.373.969,1.147,1.147,0,0,1-.461.921,1.175,1.175,0,0,1-.372-.969A1.148,1.148,0,0,1,15.747,5.92ZM15.195,8.8a1.293,1.293,0,0,1-.837-.722A1.181,1.181,0,0,1,14.311,7a1.3,1.3,0,0,1,.837.722A1.18,1.18,0,0,1,15.195,8.8ZM13.639,6.051a1.127,1.127,0,0,1-.377-.917,1.246,1.246,0,0,1,.945.4,1.128,1.128,0,0,1,.377.917A1.246,1.246,0,0,1,13.639,6.051Zm.2,6.592a1.27,1.27,0,0,1-.634.947,1.3,1.3,0,0,1-.274-1.115,1.272,1.272,0,0,1,.634-.946A1.3,1.3,0,0,1,13.842,12.644Zm1.112-2.152a1.2,1.2,0,0,1-.441.98,1.233,1.233,0,0,1-.43-1,1.2,1.2,0,0,1,.44-.98A1.234,1.234,0,0,1,14.954,10.491ZM14.2,3.939a1.106,1.106,0,0,1,.635.693,1,1,0,0,1-.063.906,1.109,1.109,0,0,1-.634-.693A1,1,0,0,1,14.2,3.939Zm-.948-.254a1.05,1.05,0,0,1,.354.852,1.157,1.157,0,0,1-.88-.371,1.045,1.045,0,0,1-.354-.852A1.162,1.162,0,0,1,13.247,3.685Zm-8.494,0a1.161,1.161,0,0,1,.88-.371,1.048,1.048,0,0,1-.354.852,1.158,1.158,0,0,1-.88.371A1.047,1.047,0,0,1,4.753,3.685Zm-.322,7.844a1.271,1.271,0,0,1,.634.946,1.3,1.3,0,0,1-.273,1.115,1.27,1.27,0,0,1-.634-.947A1.3,1.3,0,0,1,4.432,11.529ZM3.417,6.454a1.128,1.128,0,0,1,.377-.917,1.246,1.246,0,0,1,.944-.4,1.124,1.124,0,0,1-.377.917A1.244,1.244,0,0,1,3.417,6.454ZM3.169,4.632A1.108,1.108,0,0,1,3.8,3.939a1,1,0,0,1,.063.906,1.11,1.11,0,0,1-.635.693A1.006,1.006,0,0,1,3.169,4.632ZM3.69,7a1.181,1.181,0,0,1-.047,1.07,1.3,1.3,0,0,1-.837.722,1.18,1.18,0,0,1,.047-1.069A1.294,1.294,0,0,1,3.69,7Zm.228,3.469a1.234,1.234,0,0,1-.431,1,1.2,1.2,0,0,1-.44-.98,1.236,1.236,0,0,1,.43-1A1.2,1.2,0,0,1,3.917,10.474ZM2.253,5.92a1.146,1.146,0,0,1,.461.921,1.177,1.177,0,0,1-.372.969,1.145,1.145,0,0,1-.461-.921A1.174,1.174,0,0,1,2.253,5.92ZM1.5,9.637a1.189,1.189,0,0,1-.17-1.059,1.249,1.249,0,0,1,.91.6,1.189,1.189,0,0,1,.17,1.058A1.247,1.247,0,0,1,1.5,9.637Zm1.122,3.395a1.339,1.339,0,0,1-.679-.988,1.492,1.492,0,0,1,1.227.215,1.337,1.337,0,0,1,.679.987A1.492,1.492,0,0,1,2.627,13.032Zm2.217,1.952A1.431,1.431,0,0,1,3.9,14.2a1.537,1.537,0,0,1,1.261-.088,1.434,1.434,0,0,1,.947.789A1.538,1.538,0,0,1,4.844,14.984ZM9.63,12.225a.092.092,0,0,1-.1.1h-.9a.092.092,0,0,1-.1-.1V6.986H8.516L7.5,7.7c-.059.039-.107.02-.107-.058v-1a.159.159,0,0,1,.068-.137l1.066-.772A.255.255,0,0,1,8.7,5.677h.83a.092.092,0,0,1,.1.1v6.451Zm3.527,2.759A1.538,1.538,0,0,1,11.9,14.9a1.43,1.43,0,0,1,.947-.789A1.537,1.537,0,0,1,14.1,14.2,1.431,1.431,0,0,1,13.157,14.984Zm2.217-1.952a1.492,1.492,0,0,1-1.227.214,1.337,1.337,0,0,1,.679-.987,1.492,1.492,0,0,1,1.227-.215A1.339,1.339,0,0,1,15.374,13.032Zm.213-2.794a1.189,1.189,0,0,1,.17-1.058,1.248,1.248,0,0,1,.91-.6,1.19,1.19,0,0,1-.17,1.059A1.247,1.247,0,0,1,15.586,10.238Z" fill="#4b4b4b"></path>
</svg>
