<svg xmlns="http://www.w3.org/2000/svg" width="56" height="56" viewBox="0 0 56 56">
  <g id="Icon" transform="translate(-43 -6520)">
    <rect id="Frame" width="56" height="56" transform="translate(43 6520)" fill="none"/>
    <path id="Icon_awesome-sass" data-name="Icon awesome-sass" d="M26.411,32.881C26.385,32.933,26.359,32.975,26.411,32.881Zm21.8-7.613a11.477,11.477,0,0,0-5.075,1.181A10.777,10.777,0,0,1,42,23.816a7.03,7.03,0,0,1-.1-2.214,18.643,18.643,0,0,1,.665-2.38c-.009-.1-.123-.578-1.251-.586s-2.1.219-2.213.516a10.749,10.749,0,0,0-.464,1.671c-.2,1.024-2.257,4.681-3.42,6.589a6.794,6.794,0,0,1-.779-1.925,7.03,7.03,0,0,1-.1-2.214,18.642,18.642,0,0,1,.665-2.38c-.009-.1-.123-.578-1.25-.586s-2.1.219-2.214.516-.236,1-.464,1.671-2.965,6.764-3.682,8.348c-.368.805-.683,1.453-.91,1.89-.035.07-.061.114-.079.149.026-.044.044-.087.044-.07-.193.376-.306.586-.306.586v.009c-.149.28-.315.534-.394.534a3.63,3.63,0,0,1,.026-1.741c.411-2.118,1.383-5.408,1.374-5.521-.009-.061.184-.63-.639-.936a1.03,1.03,0,0,0-1.155.192c-.07,0-.122.175-.122.175s.884-3.71-1.7-3.71c-1.61,0-3.85,1.768-4.951,3.369-.691.376-2.188,1.19-3.763,2.056l-1.811,1c-.044-.044-.079-.088-.123-.131C9.762,25.347,3.979,22.984,4.224,18.5c.088-1.636.656-5.933,11.119-11.148,8.575-4.27,15.431-3.1,16.611-.49,1.7,3.719-3.665,10.64-12.57,11.638-3.394.376-5.178-.936-5.625-1.426-.464-.516-.534-.543-.709-.446-.289.158-.105.613,0,.884a5.272,5.272,0,0,0,3.219,2.529c1.636.534,5.616.831,10.427-1.033,5.406-2.083,9.614-7.884,8.38-12.74C33.821,1.328,25.638-.291,17.9,2.457a38.922,38.922,0,0,0-13.183,7.56C.457,14.007-.225,17.481.055,18.933c1,5.154,8.1,8.514,10.943,11-.14.079-.271.149-.394.219-1.425.709-6.841,3.544-8.2,6.536-1.531,3.4.254,5.828,1.425,6.16a8.736,8.736,0,0,0,9.412-3.815,9.474,9.474,0,0,0,.84-8.706c-.009-.026-.026-.044-.035-.07.368-.219.744-.438,1.12-.656.725-.429,1.434-.823,2.055-1.164a13.591,13.591,0,0,0-.735,3.728,7.746,7.746,0,0,0,1.671,5.4A1.836,1.836,0,0,0,19.509,38c1.208,0,1.75-1,2.353-2.188.744-1.453,1.4-3.141,1.4-3.141s-.823,4.568,1.426,4.568c.822,0,1.644-1.059,2.013-1.6v.009s.017-.035.061-.105c.087-.131.131-.21.131-.21V35.3c.333-.569,1.059-1.873,2.152-4.025,1.418-2.783,2.773-6.256,2.773-6.256a17.609,17.609,0,0,0,.543,2.258,21.137,21.137,0,0,0,1.173,2.625c-.333.455-.534.718-.534.718a.027.027,0,0,0,.009.017c-.263.35-.56.726-.866,1.094a30.885,30.885,0,0,0-2.625,3.29.894.894,0,0,0,.245,1.2,2.127,2.127,0,0,0,1.373.219,6.068,6.068,0,0,0,2.056-.473,7.193,7.193,0,0,0,1.767-.928,3.95,3.95,0,0,0,1.7-3.483,7.247,7.247,0,0,0-.639-2.468c.1-.14.2-.289.3-.438a46.516,46.516,0,0,0,3.07-5.3,17.609,17.609,0,0,0,.542,2.258,15.434,15.434,0,0,0,1,2.249,9.618,9.618,0,0,0-2.983,3.859c-.648,1.864-.14,2.7.814,2.9a2.936,2.936,0,0,0,1.5-.306,6.953,6.953,0,0,0,1.889-.971,4.228,4.228,0,0,0,2.082-3.465,6.51,6.51,0,0,0-.473-2.048,10.68,10.68,0,0,1,5.433-.63c4.872.569,5.826,3.614,5.642,4.883a3.235,3.235,0,0,1-1.549,2.188c-.341.21-.446.289-.42.446.044.227.2.219.49.166A3.8,3.8,0,0,0,56,31.488c.14-2.975-2.72-6.248-7.788-6.221ZM10.657,37.929C9.048,39.688,6.79,40.353,5.82,39.793c-1.041-.606-.63-3.194,1.355-5.068a25.926,25.926,0,0,1,3.8-2.835c.236-.14.578-.35,1-.6.07-.044.105-.061.105-.061.079-.052.166-.1.254-.149a6.984,6.984,0,0,1-1.671,6.851Zm11.757-8c-.56,1.374-1.74,4.874-2.458,4.69-.613-.158-.989-2.826-.123-5.451a12.068,12.068,0,0,1,1.916-3.509c.883-.989,1.854-1.3,2.082-.91C24.137,25.268,22.763,29.074,22.413,29.932Zm9.713,4.638c-.236.122-.455.2-.56.14-.079-.044.1-.21.1-.21s1.216-1.3,1.7-1.9c.28-.35.6-.761.953-1.216,0,.044.009.088.009.14-.011,1.566-1.516,2.625-2.2,3.045Zm7.488-1.706c-.175-.123-.149-.534.438-1.811a6.8,6.8,0,0,1,1.663-2.144,3.166,3.166,0,0,1,.166.945,3.085,3.085,0,0,1-2.265,3.01Z" transform="translate(43 6525.875)" fill="#555"/>
  </g>
</svg>
