<svg xmlns="http://www.w3.org/2000/svg" width="56" height="56" viewBox="0 0 56 56">
  <g id="Icon" transform="translate(-43 -6520)">
    <rect id="Frame" width="55.984" height="55.68" transform="translate(43 6520)" fill="none"/>
    <path id="icons8-notion-96" d="M37.917,1.519l-33.3,1.3-.078.005-.057.005A2.63,2.63,0,0,0,2,5.424v36.17a7.688,7.688,0,0,0,1.344,4.332l7.1,10.4a2.689,2.689,0,0,0,2.385,1.154L55.5,54.88a2.631,2.631,0,0,0,2.5-2.6V11.932a2.57,2.57,0,0,0-.7-1.759,1.325,1.325,0,0,0-.4-.341L56.9,9.827a2.684,2.684,0,0,0-.5-.28L45.458,3.456l.089.056a12.216,12.216,0,0,0-7.615-1.993Zm.151,2.6h.047a9.5,9.5,0,0,1,5.932,1.546q.043.03.089.056l6.729,3.747L14.948,10.6,8.583,5.271Zm14.6,10.5V49.836L15.333,52.114V15.8ZM48.51,19.747c-2.7.156-5.423.285-8.135.483a1.873,1.873,0,0,0-1.661,1.642c-.051.385.057.584.505.615.821.06,1.636.173,2.49.269V38.035c-.251-.351-.388-.537-.516-.727-3.493-5.152-7-10.294-10.464-15.467A1.906,1.906,0,0,0,28.672,20.8c-2.445.263-4.911.341-7.365.534a1.94,1.94,0,0,0-1.8,2.532l2.8.239V46.053c-.624.172-1.246.365-1.875.514a1.344,1.344,0,0,0-1.062,1.149c-.1.463.018.7.6.656,2-.138,4.005-.224,6.005-.341a24.321,24.321,0,0,0,2.469-.193,2,2,0,0,0,1.833-1.9c-.987-.213-1.979-.448-2.979-.636-.445-.083-.6-.261-.594-.712q.024-7.638.016-15.279c0-.167.036-.337.068-.615.155.2.217.283.276.371q4.048,6.134,8.1,12.269,1.752,2.632,3.594,5.206a3.4,3.4,0,0,0,3.682,1.337c.928-.19,1.82-.553,2.729-.834a.872.872,0,0,0,.651-1q-.028-11.222-.01-22.442c0-1.393,0-1.391,1.411-1.678C48.52,21.67,48.9,21.048,48.51,19.747Z" transform="translate(41 6518.512)" fill="#555"/>
  </g>
</svg>
