<svg xmlns="http://www.w3.org/2000/svg" width="32" height="32" viewBox="0 0 32 32">
  <path id="Icon_simple-adobephotoshop" data-name="Icon simple-adobephotoshop" d="M0,.45v32H32V.45ZM1.333,1.818H30.667V31.082H1.333Zm6.4,6.126c0-.092.187-.159.3-.159.859-.045,2.117-.068,3.437-.068,3.7,0,5.133,2.079,5.133,4.74,0,3.474-2.456,4.964-5.469,4.964-.507,0-.68-.023-1.033-.023v5.254c0,.114-.044.159-.153.159H7.888c-.111,0-.153-.041-.153-.155V7.944ZM10.1,15.208c.307.022.549.022,1.08.022,1.56,0,3.027-.563,3.027-2.73,0-1.737-1.048-2.617-2.829-2.617-.528,0-1.033.022-1.276.045v5.284Zm11.476-1.625c-1.056,0-1.408.542-1.408.993,0,.5.24.834,1.649,1.579,2.091,1.039,2.749,2.031,2.749,3.5,0,2.188-1.627,3.364-3.827,3.364a5.7,5.7,0,0,1-2.733-.588c-.087-.045-.107-.112-.107-.226V20.2c0-.137.064-.182.152-.115a4.823,4.823,0,0,0,2.683.812c1.056,0,1.5-.451,1.5-1.061,0-.5-.307-.926-1.649-1.648-1.893-.93-2.685-1.874-2.685-3.456,0-1.76,1.341-3.227,3.673-3.227a6.075,6.075,0,0,1,2.392.383.3.3,0,0,1,.133.271v1.874c0,.114-.067.182-.2.137a4.68,4.68,0,0,0-2.324-.588Z" transform="translate(0 -0.45)" fill="#555"/>
</svg>
