<svg xmlns="http://www.w3.org/2000/svg" width="16.215" height="18" viewBox="0 0 16.215 18">
  <g id="グループ_3457" data-name="グループ 3457" transform="translate(-68.393 2.75)">
    <g id="パレットのアイコン9" transform="translate(67.5 -2.75)">
      <path id="パス_1551" data-name="パス 1551" d="M4.71,8.639A1.344,1.344,0,1,0,4.1,8.181,1.342,1.342,0,0,0,4.71,8.639ZM4.467,6.947a.826.826,0,0,1,.67-.4.82.82,0,0,1,.469.12.833.833,0,0,1,.318.351.832.832,0,0,1-.04.789.836.836,0,0,1-.351.318.833.833,0,0,1-.789-.04.837.837,0,0,1-.317-.351.832.832,0,0,1,.04-.789Z" fill="#4b4b4b"/>
      <path id="パス_1552" data-name="パス 1552" d="M10.472,14.218a1.057,1.057,0,1,0,1.007-1.1A1.056,1.056,0,0,0,10.472,14.218Z" fill="#4b4b4b"/>
      <path id="パス_1553" data-name="パス 1553" d="M8.455,13.787a.948.948,0,1,0,.991.9A.948.948,0,0,0,8.455,13.787Z" fill="#4b4b4b"/>
      <path id="パス_1554" data-name="パス 1554" d="M5.585,14.284a.844.844,0,1,0-.882-.8A.844.844,0,0,0,5.585,14.284Z" fill="#4b4b4b"/>
      <path id="パス_1555" data-name="パス 1555" d="M3.527,11.071a.66.66,0,1,0,.629-.69A.66.66,0,0,0,3.527,11.071Z" fill="#4b4b4b"/>
      <path id="パス_1556" data-name="パス 1556" d="M9.906,9.136,9.9,9.114,8.818,8.352H8.795a1.983,1.983,0,0,0-1.5.892,5.5,5.5,0,0,0-.7,1.549,7.648,7.648,0,0,1-.409,1.063,2.54,2.54,0,0,1-.234.4l-.09.106.1.042a2.449,2.449,0,0,0,1.81-.144,4.157,4.157,0,0,0,1.8-1.417A1.981,1.981,0,0,0,9.906,9.136ZM8.937,11.06c-.02.016-.041.033-.062.053-.242.218-.517.174-.3-.231s-.07-.487-.349-.2c-.35.356-.465.124-.387-.057s.315-.446.16-.577c-.093-.078-.244.074-.481.286-.136.121-.414.125-.243-.356a3.311,3.311,0,0,1,.3-.531,1.529,1.529,0,0,1,1.052-.665l.926.653a1.529,1.529,0,0,1-.273,1.215A3.272,3.272,0,0,1,8.937,11.06Z" fill="#4b4b4b"/>
      <path id="パス_1557" data-name="パス 1557" d="M9.444,8.082l.5.351a.606.606,0,0,0,.591.023,1.376,1.376,0,0,0,.594-.518l.7-1.073L10.287,5.778,9.512,6.8a1.374,1.374,0,0,0-.288.733A.607.607,0,0,0,9.444,8.082Z" fill="#4b4b4b"/>
      <path id="パス_1558" data-name="パス 1558" d="M15.391,1.242C15.681.8,15.683.29,15.4.087l0,0c-.288-.2-.765-.031-1.085.393L10.562,5.414l1.517,1.07Z" fill="#4b4b4b"/>
      <path id="パス_1559" data-name="パス 1559" d="M17.1,9.517l0-.078a4.375,4.375,0,0,0-.317-1.514,2.635,2.635,0,0,0-.709-.992,2.171,2.171,0,0,0-.612-.369,2.088,2.088,0,0,0-.769-.147l-.095,0a1.977,1.977,0,0,0-.718.169,1.694,1.694,0,0,0-.583.424,2.63,2.63,0,0,1-1.272.784l-.334.511a2.194,2.194,0,0,1-.349.407l.1,0A3.508,3.508,0,0,0,13.907,7.55a.9.9,0,0,1,.305-.219,1.169,1.169,0,0,1,.423-.1h.057a1.277,1.277,0,0,1,.536.118,1.47,1.47,0,0,1,.553.454,2.142,2.142,0,0,1,.3.55,3.719,3.719,0,0,1,.21,1.125l0,.071a7.469,7.469,0,0,1-1.081,4.139,7.288,7.288,0,0,1-3.068,2.788,7.2,7.2,0,0,1-2.8.7q-.172.008-.342.008a7.29,7.29,0,0,1-7.283-6.959A7.157,7.157,0,0,1,3.009,5.764,7.661,7.661,0,0,1,6.663,2.978a.968.968,0,0,1,.28-.052H7a1.158,1.158,0,0,1,.337.049.879.879,0,0,1,.328.177.7.7,0,0,1,.15.188.9.9,0,0,1,.1.392,1.621,1.621,0,0,1-.027.357c-.014.082-.032.168-.052.265s-.04.193-.059.3a3.035,3.035,0,0,0-.053.673,3.537,3.537,0,0,0,.7,1.958c.044.059.091.116.138.172a2.011,2.011,0,0,1,.338-.94c-.033-.057-.069-.112-.1-.172a2.726,2.726,0,0,1-.265-1.056,2.2,2.2,0,0,1,.042-.493c.015-.086.033-.175.055-.279s.038-.185.056-.283a2.439,2.439,0,0,0,.038-.537,1.684,1.684,0,0,0-.243-.821,1.539,1.539,0,0,0-.547-.522A1.776,1.776,0,0,0,7.5,2.175a2.01,2.01,0,0,0-.5-.063l-.089,0a1.784,1.784,0,0,0-.519.1A8.367,8.367,0,0,0,2.342,5.3,7.95,7.95,0,0,0,.9,10.265,8.1,8.1,0,0,0,9,18q.19,0,.381-.009a8.02,8.02,0,0,0,5.6-2.637A8.234,8.234,0,0,0,17.1,9.517Z" fill="#4b4b4b"/>
    </g>
  </g>
</svg>
