<svg xmlns="http://www.w3.org/2000/svg" width="19" height="16" viewBox="0 0 19 16">
  <path id="Icon" d="M18.438,35.395h-1.13v-.551a.8.8,0,0,0-.807-.784H4.783v3.888a.418.418,0,0,1-.836,0V34.06H.738A.727.727,0,0,0,0,34.777v7.156a.727.727,0,0,0,.738.717h2.55v1.733h0v.006h.659V42.649H6.181a.727.727,0,0,0,.738-.717v-2.6H9.707a2.773,2.773,0,0,1,2.812,2.731v4.455H2.643a.7.7,0,0,0-.7.684v1.523A1.358,1.358,0,0,0,3.316,50.06h13.2a.694.694,0,0,0,.7-.684V48.47a.756.756,0,0,0,.089-.351V40.178h1.13A.554.554,0,0,0,19,39.632V35.94A.554.554,0,0,0,18.438,35.395ZM13.63,37.488a1.314,1.314,0,0,1-.231-.745,1.369,1.369,0,0,1,1.388-1.349,1.406,1.406,0,0,1,.658.166c.03.017.061.032.09.051a10.194,10.194,0,0,0-.959.829,9.906,9.906,0,0,0-.866.951C13.684,37.423,13.656,37.456,13.63,37.488Zm1.157.6a1.41,1.41,0,0,1-.55-.114c-.028-.013-.056-.024-.083-.039a9.821,9.821,0,0,0,1.047-.893,10.13,10.13,0,0,0,.829-.9,1.311,1.311,0,0,1,.146.6A1.369,1.369,0,0,1,14.787,38.092Z" transform="translate(0 -34.06)" fill="#555"/>
</svg>
