<svg xmlns="http://www.w3.org/2000/svg" width="19" height="32" viewBox="0 0 19 32">
  <g id="グループ_3520" data-name="グループ 3520" transform="translate(-9.475)">
    <g id="シンプルな指輪アイコン1" transform="translate(9.474)">
      <path id="パス_1565" data-name="パス 1565" d="M14.923,12.563l7.315-6.777L17.609,0H8.339L3.706,5.786l7.316,6.778a9.754,9.754,0,0,0-7.548,9.613A9.665,9.665,0,0,0,12.972,32a9.666,9.666,0,0,0,9.5-9.824A9.754,9.754,0,0,0,14.923,12.563ZM12.972,27.246a5.072,5.072,0,0,1,0-10.138,5.072,5.072,0,0,1,0,10.138Z" transform="translate(-3.474)" fill="#555"/>
    </g>
  </g>
</svg>
