<svg xmlns="http://www.w3.org/2000/svg" width="32.038" height="32" viewBox="0 0 32.038 32">
  <g id="グループ_3519" data-name="グループ 3519" transform="translate(-64.981 -0.169)">
    <g id="ブレードソードアイコン1" transform="translate(64.981 0.169)">
      <path id="パス_1566" data-name="パス 1566" d="M24.751,21.293c-1.6-1.6-4.771-4.5-5.1-6.433-.093-.541-.35-.466-.932-.666a21.309,21.309,0,0,1-2.369-1.355A24.219,24.219,0,0,1,9.421,5.316l-4.1,4.1a24.216,24.216,0,0,1,7.523,6.926,21.213,21.213,0,0,1,1.355,2.369c.2.582.125.838.665.932,1.929.332,4.837,3.508,6.433,5.1s4.123,3.324,6.584,3.125C28.076,25.416,26.346,22.889,24.751,21.293Z" transform="translate(4.146 4.108)" fill="#4b4b4b"/>
      <path id="パス_1567" data-name="パス 1567" d="M18.692,5.339c.821-.224.522-.672-1.046-2.539S12.923-.185,13.165.41A5.213,5.213,0,0,1,11.354,6.1a2.551,2.551,0,0,1-3.087-.191L4.753,2.4A2.717,2.717,0,0,1,4.813.322c.336-.6-1.748-.269-2.286.269A2.56,2.56,0,0,0,.484.484,2.563,2.563,0,0,0,.591,2.527C.054,3.065-.282,5.148.323,4.812A2.713,2.713,0,0,1,2.4,4.753L5.913,8.267A2.552,2.552,0,0,1,6.1,11.355a5.214,5.214,0,0,1-5.694,1.81c-.595-.242.523,2.912,2.39,4.481s2.314,1.867,2.539,1.046A13.16,13.16,0,0,1,9,12.045L12.045,9A13.167,13.167,0,0,1,18.692,5.339Z" transform="translate(0 0)" fill="#4b4b4b"/>
    </g>
  </g>
</svg>
