<svg xmlns="http://www.w3.org/2000/svg" width="35.927" height="32" viewBox="0 0 35.927 32">
  <g id="グループ_3519" data-name="グループ 3519" transform="translate(-54.536 0.635)">
    <g id="プログラムアイコン" transform="translate(54.536 -0.635)">
      <path id="パス_1547" data-name="パス 1547" d="M35.8,30.691l-3.2-5V4.673a1.692,1.692,0,0,0-1.482-1.841H4.81A1.691,1.691,0,0,0,3.328,4.673v21.02l-3.2,5A.855.855,0,0,0,0,31.15v2.212a1.349,1.349,0,0,0,1.182,1.469H34.745a1.349,1.349,0,0,0,1.182-1.469V31.15A.853.853,0,0,0,35.8,30.691ZM5.419,5.43H30.508V23.095H5.419ZM21.34,33.084H14.587V30.863H21.34Z" transform="translate(0 -2.832)" fill="#4b4b4b"/>
      <path id="パス_1548" data-name="パス 1548" d="M9.791,6.54a.038.038,0,0,0-.022.007L5.733,9.3a.04.04,0,0,0-.017.033v.741a.038.038,0,0,0,.017.032l4.037,2.755a.034.034,0,0,0,.022.007.038.038,0,0,0,.018,0,.039.039,0,0,0,.021-.035V11.651a.04.04,0,0,0-.017-.032L7.01,9.705l2.8-1.913A.04.04,0,0,0,9.83,7.76V6.58a.038.038,0,0,0-.021-.035A.032.032,0,0,0,9.791,6.54Z" transform="translate(4.552 2.264)" fill="#4b4b4b"/>
      <path id="パス_1549" data-name="パス 1549" d="M11.983,6.547a.039.039,0,0,0-.022-.007.033.033,0,0,0-.018,0,.039.039,0,0,0-.021.035V7.76a.039.039,0,0,0,.017.032l2.8,1.913-2.8,1.913a.04.04,0,0,0-.017.033v1.18a.04.04,0,0,0,.021.035.039.039,0,0,0,.018,0,.035.035,0,0,0,.022-.007l4.036-2.755a.036.036,0,0,0,.018-.032V9.335a.039.039,0,0,0-.018-.033Z" transform="translate(9.494 2.264)" fill="#4b4b4b"/>
      <path id="パス_1550" data-name="パス 1550" d="M12.644,6.181H11.516a.038.038,0,0,0-.037.026L8.917,13.636a.039.039,0,0,0,.005.035.04.04,0,0,0,.032.017h1.128a.039.039,0,0,0,.037-.027l2.562-7.428a.04.04,0,0,0,0-.036A.04.04,0,0,0,12.644,6.181Z" transform="translate(7.1 1.895)" fill="#4b4b4b"/>
    </g>
  </g>
</svg>
