<svg xmlns="http://www.w3.org/2000/svg" width="32" height="32" viewBox="0 0 32 32">
  <path id="Icon_simple-adobeillustrator" data-name="Icon simple-adobeillustrator" d="M0,.45v32H32V.45ZM1.333,1.818H30.667V31.082H1.333ZM11.1,18.57l-1.056,4.1c-.023.114-.067.139-.2.139H7.889c-.133,0-.153-.045-.133-.2l3.787-13.6a4.32,4.32,0,0,0,.131-1.139c0-.09.044-.137.111-.137h2.795c.088,0,.133.025.155.137L18.98,22.628c.023.114,0,.181-.111.181h-2.2c-.111,0-.176-.027-.2-.118l-1.1-4.123H11.1Zm3.717-2.222c-.373-1.512-1.253-4.825-1.584-6.427h-.023c-.285,1.6-.989,4.308-1.54,6.427Zm6-7.6a1.364,1.364,0,1,1,2.728,0,1.293,1.293,0,0,1-1.387,1.4,1.27,1.27,0,0,1-1.347-1.4Zm.149,3.11c0-.109.044-.15.155-.15h2.093c.117,0,.16.045.16.159v10.8c0,.114-.021.159-.153.159H21.155c-.133,0-.177-.068-.177-.178V11.855Z" transform="translate(0 -0.45)" fill="#555"/>
</svg>
