<svg xmlns="http://www.w3.org/2000/svg" width="16" height="16" viewBox="0 0 16 16">
  <path id="Icon_simple-adobephotoshop" data-name="Icon simple-adobephotoshop" d="M0,.45v16H16V.45Zm.667.684H15.333V15.766H.667ZM3.867,4.2c0-.046.093-.079.149-.079.429-.023,1.059-.034,1.719-.034,1.848,0,2.567,1.039,2.567,2.37,0,1.737-1.228,2.482-2.735,2.482-.253,0-.34-.012-.517-.012v2.627c0,.057-.022.079-.077.079H3.944c-.055,0-.077-.021-.077-.077V4.2ZM5.05,7.829c.153.011.275.011.54.011.78,0,1.513-.282,1.513-1.365,0-.868-.524-1.309-1.415-1.309-.264,0-.517.011-.638.023V7.831Zm5.738-.812c-.528,0-.7.271-.7.5,0,.248.12.417.825.79,1.045.52,1.375,1.015,1.375,1.748a1.687,1.687,0,0,1-1.913,1.682A2.852,2.852,0,0,1,9,11.439c-.043-.023-.053-.056-.053-.113v-1c0-.068.032-.091.076-.057a2.411,2.411,0,0,0,1.341.406c.528,0,.748-.226.748-.531,0-.248-.153-.463-.825-.824-.947-.465-1.343-.937-1.343-1.728a1.653,1.653,0,0,1,1.837-1.614,3.038,3.038,0,0,1,1.2.191.15.15,0,0,1,.067.135V7.24c0,.057-.033.091-.1.068a2.34,2.34,0,0,0-1.162-.294Z" transform="translate(0 -0.45)" fill="#555"/>
</svg>
