<svg xmlns="http://www.w3.org/2000/svg" width="18" height="32" viewBox="0 0 18 32">
  <path id="Icon_ionic-ios-phone-portrait" data-name="Icon ionic-ios-phone-portrait" d="M25.536,2.25H12.786A2.513,2.513,0,0,0,10.125,4.6V31.814a2.575,2.575,0,0,0,2.661,2.436H25.528a2.517,2.517,0,0,0,2.6-2.436V4.6A2.441,2.441,0,0,0,25.536,2.25ZM17.923,3.893h2.412a.288.288,0,1,1,0,.571H17.923a.288.288,0,1,1,0-.571Zm1.246,29.286a1.252,1.252,0,1,1,1.4-1.243A1.329,1.329,0,0,1,19.169,33.179Zm7.517-3.5H11.572a.153.153,0,0,1-.161-.143V6.036a.153.153,0,0,1,.161-.143H26.686a.153.153,0,0,1,.161.143v23.5A.153.153,0,0,1,26.686,29.679Z" transform="translate(-10.125 -2.25)" fill="#555"/>
</svg>
