<svg id="グループ_3510" data-name="グループ 3510" xmlns="http://www.w3.org/2000/svg" width="33" height="32.417" viewBox="0 0 33 32.417">
  <g id="長方形_1887" data-name="長方形 1887" fill="none" stroke="#555" stroke-width="1.5">
    <rect width="33" height="24" rx="1" stroke="none"/>
    <rect x="0.75" y="0.75" width="31.5" height="22.5" rx="0.25" fill="none"/>
  </g>
  <line id="線_1016" data-name="線 1016" x1="27.333" transform="translate(3.333 31.667)" fill="none" stroke="#555" stroke-width="1.5"/>
  <path id="Icon_awesome-code" data-name="Icon awesome-code" d="M9,15.987l-1.97-.553a.374.374,0,0,1-.265-.466L11.178.273a.39.39,0,0,1,.481-.256l1.97.553a.374.374,0,0,1,.265.466L9.486,15.731A.389.389,0,0,1,9,15.987ZM5.324,12.481l1.4-1.45a.367.367,0,0,0-.026-.538L3.777,8,6.7,5.511a.364.364,0,0,0,.026-.538l-1.4-1.45a.4.4,0,0,0-.549-.016L.122,7.727a.364.364,0,0,0,0,.547L4.775,12.5a.394.394,0,0,0,.549-.016Zm10.565.019,4.653-4.222a.364.364,0,0,0,0-.547L15.889,3.5a.4.4,0,0,0-.549.016l-1.4,1.45a.367.367,0,0,0,.026.538L16.886,8l-2.925,2.491a.364.364,0,0,0-.026.538l1.4,1.45A.4.4,0,0,0,15.889,12.5Z" transform="translate(6.335 3.664)" fill="#555"/>
  <g id="長方形_1895" data-name="長方形 1895" transform="translate(12 23)" fill="none" stroke="#555" stroke-width="1.5">
    <rect width="9" height="9" stroke="none"/>
    <rect x="0.75" y="0.75" width="7.5" height="7.5" fill="none"/>
  </g>
</svg>
