<svg xmlns="http://www.w3.org/2000/svg" width="18" height="16" viewBox="0 0 18 16">
  <g id="ミシン機のアイコン素材_1" data-name="ミシン機のアイコン素材 1" transform="translate(0 -34.06)">
    <path id="パス_279" data-name="パス 279" d="M17.468,35.395H16.4v-.551a.774.774,0,0,0-.764-.784H4.531v3.888a.4.4,0,1,1-.792,0V34.06H.7a.708.708,0,0,0-.7.717v7.156a.708.708,0,0,0,.7.717H3.115v1.733h0v.006h.624V42.649H5.855a.708.708,0,0,0,.7-.717v-2.6H9.2a2.7,2.7,0,0,1,2.664,2.731v4.455H2.5a.676.676,0,0,0-.667.684v1.523a1.321,1.321,0,0,0,1.3,1.338h12.5a.676.676,0,0,0,.667-.684V48.47a.79.79,0,0,0,.084-.351V40.178h1.071A.539.539,0,0,0,18,39.632V35.94A.539.539,0,0,0,17.468,35.395Zm-4.555,2.093a1.366,1.366,0,0,1-.219-.745,1.332,1.332,0,0,1,1.315-1.349,1.277,1.277,0,0,1,.623.166c.028.017.058.032.085.051a10.434,10.434,0,0,0-1.729,1.779C12.964,37.423,12.937,37.456,12.913,37.488Zm1.1.6a1.276,1.276,0,0,1-.521-.114c-.026-.013-.053-.024-.078-.039a9.456,9.456,0,0,0,.992-.893,9.951,9.951,0,0,0,.786-.9,1.37,1.37,0,0,1,.138.6A1.332,1.332,0,0,1,14.009,38.092Z" fill="#555"/>
  </g>
</svg>
