<svg xmlns="http://www.w3.org/2000/svg" width="16" height="15" viewBox="0 0 16 15">
  <path id="Icon_simple-adobeillustrator" data-name="Icon simple-adobeillustrator" d="M0,.45v15H16V.45Zm.667.641H15.333V14.809H.667ZM5.55,8.944l-.528,1.922c-.011.053-.033.065-.1.065H3.945c-.067,0-.077-.021-.067-.095L5.771,4.461a1.906,1.906,0,0,0,.065-.534c0-.042.022-.064.055-.064h1.4c.044,0,.067.012.077.064L9.49,10.846c.011.053,0,.085-.055.085h-1.1c-.055,0-.088-.013-.1-.055l-.55-1.933H5.548ZM7.409,7.9c-.187-.709-.627-2.262-.792-3.013H6.605c-.143.75-.495,2.019-.77,3.013Zm3-3.563a.683.683,0,0,1,1.364,0,.627.627,0,0,1-.693.656.615.615,0,0,1-.673-.656ZM10.483,5.8c0-.051.022-.071.077-.071h1.047c.059,0,.08.021.08.074v5.061c0,.053-.011.074-.077.074H10.577c-.067,0-.089-.032-.089-.083V5.8Z" transform="translate(0 -0.45)" fill="#555"/>
</svg>
