<svg xmlns="http://www.w3.org/2000/svg" width="35.5" height="33.5" viewBox="0 0 35.5 33.5">
  <path id="パス_1598" data-name="パス 1598" d="M32.995,36.729H30.972v-1.1a1.509,1.509,0,0,0-1.444-1.567H8.559v7.777a.751.751,0,1,1-1.5,0V34.06H1.32A1.38,1.38,0,0,0,0,35.493V49.8a1.38,1.38,0,0,0,1.32,1.433H5.883V54.7h0v.011H7.062V51.238h4A1.38,1.38,0,0,0,12.38,49.8V44.6h4.99A5.261,5.261,0,0,1,22.4,50.062v8.909H4.729a1.318,1.318,0,0,0-1.26,1.368v3.046A2.576,2.576,0,0,0,5.933,66.06h23.62a1.318,1.318,0,0,0,1.26-1.368V62.879a1.656,1.656,0,0,0,.159-.7V46.3h2.022A1.051,1.051,0,0,0,34,45.2V37.821A1.051,1.051,0,0,0,32.995,36.729Zm-8.6,4.187a2.849,2.849,0,0,1-.414-1.49,2.6,2.6,0,0,1,2.485-2.7,2.309,2.309,0,0,1,1.178.331c.054.034.109.063.161.1a18.991,18.991,0,0,0-1.716,1.658,19.218,19.218,0,0,0-1.55,1.9C24.487,40.786,24.436,40.853,24.391,40.916Zm2.07,1.208a2.3,2.3,0,0,1-.985-.227c-.05-.025-.1-.048-.148-.077A18.254,18.254,0,0,0,27.2,40.033a19.618,19.618,0,0,0,1.484-1.8,2.874,2.874,0,0,1,.26,1.2A2.6,2.6,0,0,1,26.462,42.124Z" transform="translate(0.75 -33.31)" fill="none" stroke="#555" stroke-width="1.5"/>
</svg>
