<svg xmlns="http://www.w3.org/2000/svg" width="20" height="16" viewBox="0 0 20 16">
  <path id="Icon_awesome-laptop-code" data-name="Icon awesome-laptop-code" d="M7.97,8.177a.5.5,0,0,0,.707,0l.353-.353a.5.5,0,0,0,0-.707L7.914,6,9.03,4.884a.5.5,0,0,0,0-.707l-.353-.353a.5.5,0,0,0-.707,0L6.146,5.646a.5.5,0,0,0,0,.707L7.97,8.177Zm3-.353.353.353a.5.5,0,0,0,.707,0l1.823-1.823a.5.5,0,0,0,0-.707L12.031,3.823a.5.5,0,0,0-.707,0l-.353.353a.5.5,0,0,0,0,.707L12.086,6,10.97,7.116a.5.5,0,0,0,0,.707ZM19.5,13H11.923A.985.985,0,0,1,10.9,14H9a1.061,1.061,0,0,1-1.024-1H.5a.5.5,0,0,0-.5.5V14a2.006,2.006,0,0,0,2,2H18a2.006,2.006,0,0,0,2-2v-.5A.5.5,0,0,0,19.5,13ZM18,1.5A1.5,1.5,0,0,0,16.5,0H3.5A1.5,1.5,0,0,0,2,1.5V12H18ZM16,10H4V2H16Z" fill="#555"/>
</svg>
