<svg xmlns="http://www.w3.org/2000/svg" width="56" height="58" viewBox="0 0 56 58">
  <g id="Icon" transform="translate(-43 -6518)">
    <rect id="Frame" width="56" height="56" transform="translate(43 6520)" fill="none"/>
    <path id="Icon_simple-javascript" data-name="Icon simple-javascript" d="M0,0H56V56H0ZM51.413,42.644c-.408-2.555-2.072-4.7-7.007-6.7-1.717-.805-3.626-1.365-4.193-2.66a2.755,2.755,0,0,1-.107-1.645c.35-1.507,2.135-1.96,3.535-1.54a3.8,3.8,0,0,1,2.277,2.1c2.413-1.577,2.413-1.577,4.095-2.625a9.631,9.631,0,0,0-1.367-1.82c-1.47-1.645-3.428-2.485-6.613-2.413l-1.645.208A7.522,7.522,0,0,0,36.4,27.89a7.32,7.32,0,0,0,1.328,10.432c3.185,2.38,7.842,2.9,8.437,5.145.56,2.73-2.03,3.6-4.587,3.29a6.144,6.144,0,0,1-4.1-3.117l-4.27,2.452A9.436,9.436,0,0,0,35.1,48.68c4.06,4.1,14.21,3.887,16.032-2.343a7.9,7.9,0,0,0,.173-3.85l.107.156ZM30.452,25.739H25.207c0,4.522-.021,9.016-.021,13.545,0,2.875.147,5.514-.322,6.326-.77,1.608-2.753,1.4-3.654,1.12a4.5,4.5,0,0,1-1.937-1.995,2,2,0,0,0-.3-.457L14.719,46.9a8.253,8.253,0,0,0,3.089,3.54,10.269,10.269,0,0,0,7.483.945,6.554,6.554,0,0,0,4.226-3.292c1.19-2.17.938-4.83.926-7.807.028-4.793,0-9.588,0-14.418l.009-.131Z" transform="translate(43 6518)" fill="#555"/>
  </g>
</svg>
