<svg xmlns="http://www.w3.org/2000/svg" width="41" height="32" viewBox="0 0 41 32">
  <path id="Ico_code" d="M16.338,16.353a1.043,1.043,0,0,0,1.45,0l.725-.707a.983.983,0,0,0,0-1.414L16.224,12l2.288-2.232a.983.983,0,0,0,0-1.414l-.725-.707a1.043,1.043,0,0,0-1.45,0L12.6,11.292a.983.983,0,0,0,0,1.414l3.738,3.646Zm6.151-.706.725.707a1.043,1.043,0,0,0,1.45,0L28.4,12.708a.983.983,0,0,0,0-1.414L24.663,7.647a1.043,1.043,0,0,0-1.45,0l-.725.707a.983.983,0,0,0,0,1.414L24.776,12l-2.288,2.233a.983.983,0,0,0,0,1.414ZM39.975,26H24.442a2,2,0,0,1-2.1,2h-3.9a2.15,2.15,0,0,1-2.1-2H1.025A1.016,1.016,0,0,0,0,27v1a4.063,4.063,0,0,0,4.1,4H36.9A4.063,4.063,0,0,0,41,28V27A1.016,1.016,0,0,0,39.975,26ZM36.9,3a3.047,3.047,0,0,0-3.075-3H7.175A3.047,3.047,0,0,0,4.1,3V24H36.9ZM32.8,20H8.2V4H32.8Z" fill="#555"/>
</svg>
