<svg xmlns="http://www.w3.org/2000/svg" width="56" height="56.001" viewBox="0 0 56 56.001">
  <g id="Icon" transform="translate(-43 -6520)">
    <rect id="Frame" width="55.984" height="55.68" transform="translate(43 6520)" fill="none"/>
    <path id="Icon_simple-adobexd" data-name="Icon simple-adobexd" d="M46.083.45H9.917A10.038,10.038,0,0,0,0,10.621V46.279A10.038,10.038,0,0,0,9.917,56.45H46.083A10.038,10.038,0,0,0,56,46.279V10.621A10.038,10.038,0,0,0,46.083.45Zm7.56,44.9A8.786,8.786,0,0,1,51.184,51.5,8.349,8.349,0,0,1,45.2,54.057H10.8a8.6,8.6,0,0,1-8.47-8.687V11.53A8.6,8.6,0,0,1,10.8,2.843h34.37a8.581,8.581,0,0,1,8.47,8.687Zm-31.5-18.691L28.677,39.53c.117.191.047.383-.14.383h-4.06a.457.457,0,0,1-.49-.311c-1.493-3.159-3.01-6.318-4.573-9.716h-.047c-1.4,3.207-2.94,6.581-4.433,9.74a.447.447,0,0,1-.42.263h-3.85c-.233,0-.257-.191-.14-.335l6.393-12.492L10.733,14.426c-.14-.191,0-.335.14-.335h4.013a.367.367,0,0,1,.42.263c1.47,3.159,2.963,6.414,4.363,9.6h.047c1.353-3.159,2.847-6.438,4.293-9.573.117-.191.187-.311.42-.311h3.757c.187,0,.257.144.14.335Zm7.677,3.9c0-5.576,3.617-9.932,9.357-9.932a10.091,10.091,0,0,1,1.213.048V14.33a.237.237,0,0,1,.233-.239H44.31c.187,0,.233.072.233.191V36.252A17.478,17.478,0,0,0,44.66,38.6c0,.144-.047.191-.187.263A13.61,13.61,0,0,1,38.5,40.248C33.437,40.272,29.82,37.065,29.82,30.556Zm10.57-6.126a3.451,3.451,0,0,0-1.353-.239c-2.94,0-4.993,2.321-4.993,6.174,0,4.4,2.1,6.174,4.737,6.174a4.3,4.3,0,0,0,1.61-.263V24.429Z" transform="translate(43 6519.551)" fill="#555"/>
  </g>
</svg>
