<svg xmlns="http://www.w3.org/2000/svg" width="18" height="18" viewBox="0 0 18 18">
  <path id="Icon_awesome-slack" data-name="Icon awesome-slack" d="M3.782,13.625a1.891,1.891,0,1,1-1.891-1.891H3.782Zm.953,0a1.891,1.891,0,0,1,3.782,0v4.735a1.891,1.891,0,1,1-3.782,0ZM6.625,6.032A1.891,1.891,0,1,1,8.516,4.141V6.032H6.625Zm0,.953a1.891,1.891,0,0,1,0,3.782H1.891a1.891,1.891,0,1,1,0-3.782H6.625Zm7.593,1.891a1.891,1.891,0,1,1,1.891,1.891H14.218Zm-.953,0a1.891,1.891,0,0,1-3.782,0V4.141a1.891,1.891,0,0,1,3.782,0Zm-1.891,7.593a1.891,1.891,0,1,1-1.891,1.891V16.468Zm0-.953a1.891,1.891,0,1,1,0-3.782h4.735a1.891,1.891,0,0,1,0,3.782Z" transform="translate(0 -2.25)" fill="#555"/>
</svg>
