<svg xmlns="http://www.w3.org/2000/svg" width="30" height="24" viewBox="0 0 30 24">
  <path id="ico_works_SP" d="M11.955,12.265a.75.75,0,0,0,1.061,0l.53-.53a.75.75,0,0,0,0-1.061L11.871,9l1.674-1.674a.75.75,0,0,0,0-1.061l-.53-.53a.75.75,0,0,0-1.061,0L9.219,8.469a.75.75,0,0,0,0,1.061Zm4.5-.53.53.53a.75.75,0,0,0,1.061,0l2.735-2.735a.75.75,0,0,0,0-1.061L18.046,5.735a.75.75,0,0,0-1.061,0l-.53.53a.75.75,0,0,0,0,1.061L18.129,9l-1.674,1.674a.75.75,0,0,0,0,1.061ZM29.25,19.5H17.885A1.478,1.478,0,0,1,16.35,21H13.5a1.592,1.592,0,0,1-1.536-1.5H.75a.752.752,0,0,0-.75.75V21a3.009,3.009,0,0,0,3,3H27a3.009,3.009,0,0,0,3-3v-.75A.752.752,0,0,0,29.25,19.5ZM27,2.25A2.257,2.257,0,0,0,24.75,0H5.25A2.257,2.257,0,0,0,3,2.25V18H27ZM24,15H6V3H24Z" fill="#fafafa"/>
</svg>
