<svg xmlns="http://www.w3.org/2000/svg" width="24" height="24" viewBox="0 0 24 24">
  <path id="Icon_awesome-pinterest-square" data-name="Icon awesome-pinterest-square" d="M24,4.821V23.679a2.572,2.572,0,0,1-2.571,2.571H8.271a13.727,13.727,0,0,0,1.468-3.177c.161-.616.82-3.129.82-3.129a3.517,3.517,0,0,0,3.016,1.511c3.97,0,6.825-3.648,6.825-8.18,0-4.345-3.546-7.6-8.111-7.6C6.611,5.679,3.6,9.488,3.6,13.639c0,1.929,1.029,4.329,2.668,5.095.252.118.38.064.439-.177.043-.182.268-1.077.364-1.489a.388.388,0,0,0-.091-.375,5.128,5.128,0,0,1-.98-3,5.694,5.694,0,0,1,5.941-5.711,5.2,5.2,0,0,1,5.5,5.352c0,3.557-1.795,6.021-4.136,6.021a1.913,1.913,0,0,1-1.95-2.379c.37-1.564,1.088-3.252,1.088-4.382,0-2.839-4.045-2.448-4.045,1.339a4.807,4.807,0,0,0,.391,1.955C7.1,23,6.852,23.095,7.2,26.207l.118.043H2.571A2.572,2.572,0,0,1,0,23.679V4.821A2.572,2.572,0,0,1,2.571,2.25H21.429A2.572,2.572,0,0,1,24,4.821Z" transform="translate(0 -2.25)" fill="#fafafa"/>
</svg>
