<svg xmlns="http://www.w3.org/2000/svg" width="56.438" height="56.563" viewBox="0 0 56.438 56.563">
  <g id="Icon" transform="translate(-42.563 -6520)">
    <rect id="Frame" width="56" height="56" transform="translate(43 6520)" fill="none"/>
    <path id="Icon_awesome-wordpress" data-name="Icon awesome-wordpress" d="M6.625,18.785l11.46,31.387A24.024,24.024,0,0,1,6.625,18.785Zm38.15,8.569A12.667,12.667,0,0,0,42.8,20.727c-1.219-1.976-2.36-3.658-2.36-5.634a4.157,4.157,0,0,1,4.031-4.268c.1,0,.2.011.316.023a24.017,24.017,0,0,0-36.3,4.516c.565.023,1.1.034,1.547.034,2.506,0,6.4-.3,6.4-.3a.991.991,0,0,1,.158,1.976s-1.3.147-2.744.226L22.6,43.308l5.261-15.761L24.125,17.295c-1.3-.079-2.518-.226-2.518-.226a.991.991,0,0,1,.147-1.976s3.963.3,6.323.3c2.506,0,6.4-.3,6.4-.3a.991.991,0,0,1,.158,1.976s-1.3.147-2.744.226l8.682,25.821,2.394-8C43.985,31.792,44.775,29.409,44.775,27.354Zm-15.8,3.308-7.2,20.944a23.933,23.933,0,0,0,14.756-.384,1.8,1.8,0,0,1-.169-.327L28.98,30.663ZM49.642,17.035a18.713,18.713,0,0,1,.158,2.473,22.565,22.565,0,0,1-1.829,8.6L40.632,49.325a24.043,24.043,0,0,0,9.01-32.29Zm6.921,11.527a28,28,0,1,1-28-28A28.031,28.031,0,0,1,56.563,28.563Zm-1.287,0A26.713,26.713,0,1,0,28.563,55.275,26.745,26.745,0,0,0,55.275,28.563Z" transform="translate(42 6520)" fill="#555"/>
  </g>
</svg>
