<svg xmlns="http://www.w3.org/2000/svg" width="56" height="56.001" viewBox="0 0 56 56.001">
  <g id="Icon" transform="translate(-43 -6519.999)">
    <rect id="Frame" width="56" height="56" transform="translate(43 6520)" fill="none"/>
    <path id="Icon_simple-slack" data-name="Icon simple-slack" d="M11.765,35.385a5.882,5.882,0,1,1-5.88-5.88h5.88v5.88Zm2.966,0a5.882,5.882,0,0,1,11.765,0v14.73a5.882,5.882,0,1,1-11.765,0V35.385Zm5.882-23.62A5.882,5.882,0,1,1,26.5,5.885v5.88H20.613Zm0,2.966a5.882,5.882,0,1,1,0,11.765H5.885a5.882,5.882,0,1,1,0-11.765H20.613Zm23.618,5.882A5.885,5.885,0,1,1,50.115,26.5H44.231V20.613Zm-2.959,0a5.884,5.884,0,0,1-11.767,0V5.885a5.883,5.883,0,1,1,11.767,0ZM35.385,44.231a5.885,5.885,0,1,1-5.88,5.885V44.231h5.88Zm0-2.959a5.884,5.884,0,0,1,0-11.767h14.73a5.883,5.883,0,1,1,0,11.767Z" transform="translate(43 6519.999)" fill="#555"/>
  </g>
</svg>
