<svg xmlns="http://www.w3.org/2000/svg" width="32" height="24" viewBox="0 0 32 24">
  <path id="Icon_metro-profile" data-name="Icon metro-profile" d="M34.213,11.141H31.975V7.783l-4.619-.071.024,3.429H13.5l.095-3.429L9.07,7.783v3.429l-2.286-.071A2.287,2.287,0,0,0,4.5,13.426v16a2.287,2.287,0,0,0,2.286,2.286H34.213A2.287,2.287,0,0,0,36.5,29.426v-16A2.287,2.287,0,0,0,34.213,11.141ZM28.5,8.855h2.286v4.571H28.5ZM13.642,16.64c1.381,0,2.5,1.471,2.5,3.286s-1.12,3.286-2.5,3.286-2.5-1.471-2.5-3.286,1.12-3.286,2.5-3.286ZM10.213,8.855H12.5v4.571H10.213ZM8.69,27.081s.271-2.174.887-2.584a8.765,8.765,0,0,1,2.389-.683s1.15,1.229,1.639,1.229,1.638-1.229,1.638-1.229a8.738,8.738,0,0,1,2.39.683c.723.482.9,2.584.9,2.584H8.69ZM31.927,26H21.642V24.855H31.927Zm0-2.286H21.642V22.569H31.927Zm0-2.286H21.642V20.284H31.927Zm0-2.286H21.642V18H31.927Z" transform="translate(-4.499 -7.712)" fill="#fafafa"/>
</svg>
