<svg xmlns="http://www.w3.org/2000/svg" width="18" height="17.55" viewBox="0 0 18 17.55">
  <path id="Icon_simple-adobephotoshop" data-name="Icon simple-adobephotoshop" d="M0,.45V18H18V.45Zm.75.75h16.5V17.25H.75Zm3.6,3.36c0-.05.105-.087.168-.087C5,4.448,5.709,4.435,6.451,4.435c2.079,0,2.887,1.14,2.887,2.6,0,1.905-1.381,2.723-3.076,2.723-.285,0-.382-.013-.581-.013v2.882c0,.062-.025.087-.086.087H4.437c-.062,0-.086-.023-.086-.085V4.56ZM5.681,8.544c.173.012.309.012.608.012.878,0,1.7-.309,1.7-1.5,0-.952-.589-1.435-1.591-1.435-.3,0-.581.012-.718.025v2.9Zm6.455-.891c-.594,0-.792.3-.792.544,0,.272.135.457.928.866,1.176.57,1.547,1.114,1.547,1.918,0,1.2-.915,1.845-2.153,1.845a3.277,3.277,0,0,1-1.537-.323c-.049-.025-.06-.062-.06-.124v-1.1c0-.075.036-.1.085-.063a2.763,2.763,0,0,0,1.509.446c.594,0,.842-.248.842-.582,0-.272-.172-.508-.928-.9-1.065-.51-1.51-1.028-1.51-1.9a1.842,1.842,0,0,1,2.066-1.77,3.5,3.5,0,0,1,1.345.21.164.164,0,0,1,.075.148V7.9c0,.062-.037.1-.113.075a2.686,2.686,0,0,0-1.307-.323Z" transform="translate(0 -0.45)" fill="#555"/>
</svg>
