<svg id="ニッパーアイコン1" xmlns="http://www.w3.org/2000/svg" width="15" height="16" viewBox="0 0 15 16">
  <path id="パス_245" data-name="パス 245" d="M424.376,86.213l-2.307.875a2.419,2.419,0,0,1-.158,2.6c-.042.057-.086.111-.131.163a5.5,5.5,0,0,0,1.1-.864,8.191,8.191,0,0,0,1.59-2.661Z" transform="translate(-409.47 -83.519)" fill="#4b4b4b"/>
  <path id="パス_246" data-name="パス 246" d="M220.778,217.552c-.026.518-.034.978-.043,1.39-.006.3-.012.581-.024.839-.01.225-.026.435-.048.634a4.944,4.944,0,0,1-.21.994,5.023,5.023,0,0,1-.33.777,9.469,9.469,0,0,1-.959,1.442c-.436.557-1,1.2-1.728,1.959l1.221,1.168a21.644,21.644,0,0,0,2.531-3.049,8.647,8.647,0,0,0,.535-.941,6.364,6.364,0,0,0,.524-1.549,8.347,8.347,0,0,0,.139-1.123c.035-.562.035-1.131.053-1.777q.006-.222.016-.456A2.4,2.4,0,0,1,220.778,217.552Z" transform="translate(-211.232 -210.754)" fill="#4b4b4b"/>
  <path id="パス_247" data-name="パス 247" d="M12.6,139.942c.225-.006.463-.015.715-.027a2.4,2.4,0,0,1-.264-.61.4.4,0,0,1-.029-.077,3.835,3.835,0,0,1-.135-.985c-.353.013-.681.019-.995.026s-.6.012-.884.025a8.623,8.623,0,0,0-1.5.182,6.29,6.29,0,0,0-1.159.38,7.825,7.825,0,0,0-.911.476,13.234,13.234,0,0,0-1.508,1.081c-.545.444-1.142.977-1.816,1.622l1.168,1.221a20.088,20.088,0,0,1,2.8-2.334,6.966,6.966,0,0,1,.757-.431,4.662,4.662,0,0,1,1.144-.388,6.765,6.765,0,0,1,.9-.109C11.373,139.961,11.932,139.96,12.6,139.942Z" transform="translate(-4.119 -133.922)" fill="#4b4b4b"/>
  <path id="パス_248" data-name="パス 248" d="M300.776,3.132a2,2,0,0,0-.441-.246l.6-2.81L300.814,0a8.188,8.188,0,0,0-2.392,1.972,3.488,3.488,0,0,0-.791,3.234l.007-.006a2,2,0,1,0,3.137-2.068Zm-.549,2.083a.792.792,0,1,1-.168-1.107A.792.792,0,0,1,300.226,5.215Z" transform="translate(-288.923)" fill="#4b4b4b"/>
</svg>
