<svg xmlns="http://www.w3.org/2000/svg" width="23" height="18" viewBox="0 0 23 18">
  <path id="Icon_awesome-book-open" data-name="Icon awesome-book-open" d="M21.652,2.252c-2.188.125-6.538.58-9.223,2.234a.619.619,0,0,0-.29.529v14.62a.632.632,0,0,0,.93.542c2.762-1.4,6.758-1.781,8.733-1.885A1.25,1.25,0,0,0,23,17.059V3.485a1.255,1.255,0,0,0-1.348-1.233ZM10.571,4.485C7.886,2.832,3.537,2.377,1.349,2.252A1.255,1.255,0,0,0,0,3.485V17.06a1.249,1.249,0,0,0,1.2,1.232c1.976.1,5.973.487,8.736,1.886a.63.63,0,0,0,.927-.541V5.007A.606.606,0,0,0,10.571,4.485Z" transform="translate(0 -2.25)" fill="#555"/>
</svg>
