<svg id="プログラムアイコン" xmlns="http://www.w3.org/2000/svg" width="20" height="18" viewBox="0 0 20 18">
  <path id="パス_1547" data-name="パス 1547" d="M19.928,18.5l-1.781-2.811V3.867a.949.949,0,0,0-.825-1.036H2.678a.949.949,0,0,0-.825,1.036V15.691L.072,18.5A.485.485,0,0,0,0,18.761v1.244a.757.757,0,0,0,.658.826H19.342A.756.756,0,0,0,20,20.005V18.761A.484.484,0,0,0,19.928,18.5ZM3.017,4.293H16.983V14.23H3.017ZM11.88,19.849H8.12V18.6H11.88Z" transform="translate(0 -2.832)" fill="#4b4b4b"/>
  <path id="パス_1548" data-name="パス 1548" d="M7.985,6.54a.021.021,0,0,0-.012,0L5.725,8.078a.022.022,0,0,0-.009.018v.412a.021.021,0,0,0,.009.018L7.972,10.06a.019.019,0,0,0,.012,0l.01,0a.022.022,0,0,0,.012-.019V9.385A.022.022,0,0,0,8,9.367L6.437,8.3,8,7.237a.022.022,0,0,0,.009-.018V6.562a.021.021,0,0,0-.012-.019A.018.018,0,0,0,7.985,6.54Z" transform="translate(0 -1.575)" fill="#4b4b4b"/>
  <path id="パス_1549" data-name="パス 1549" d="M11.956,6.544a.022.022,0,0,0-.012,0,.018.018,0,0,0-.01,0,.022.022,0,0,0-.011.019v.657a.022.022,0,0,0,.009.018L13.492,8.3l-1.56,1.065a.022.022,0,0,0-.009.018v.657a.022.022,0,0,0,.011.019l.01,0a.019.019,0,0,0,.012,0L14.2,8.526a.02.02,0,0,0,.01-.018V8.1a.021.021,0,0,0-.01-.018Z" transform="translate(0 -1.575)" fill="#4b4b4b"/>
  <path id="パス_1550" data-name="パス 1550" d="M10.991,6.181h-.628a.021.021,0,0,0-.02.015L8.916,10.331a.022.022,0,0,0,0,.019.022.022,0,0,0,.018.009h.628a.022.022,0,0,0,.02-.015L11.012,6.21a.022.022,0,0,0,0-.02A.022.022,0,0,0,10.991,6.181Z" transform="translate(0 -1.624)" fill="#4b4b4b"/>
</svg>
