<svg xmlns="http://www.w3.org/2000/svg" width="40" height="32" viewBox="0 0 40 32">
  <path id="Icon_awesome-code" data-name="Icon awesome-code" d="M17.43,31.971l-3.812-1.106a.751.751,0,0,1-.512-.931L21.636.544a.751.751,0,0,1,.931-.513l3.812,1.106a.751.751,0,0,1,.512.931l-8.531,29.39a.749.749,0,0,1-.931.513Zm-7.124-7.013,2.719-2.9a.75.75,0,0,0-.05-1.075L7.312,16l5.662-4.982a.745.745,0,0,0,.05-1.075l-2.719-2.9a.751.751,0,0,0-1.062-.031L.237,15.451a.745.745,0,0,0,0,1.094L9.243,24.99a.745.745,0,0,0,1.062-.031ZM30.754,25l9.006-8.444a.745.745,0,0,0,0-1.094L30.754,7.007a.757.757,0,0,0-1.062.031l-2.719,2.9a.75.75,0,0,0,.05,1.075L32.685,16l-5.662,4.982a.745.745,0,0,0-.05,1.075l2.719,2.9A.751.751,0,0,0,30.754,25Z" transform="translate(0.002 -0.002)" fill="#555"/>
</svg>
