<svg xmlns="http://www.w3.org/2000/svg" width="22" height="18" viewBox="0 0 22 18">
  <path id="Icon_awesome-code" data-name="Icon awesome-code" d="M9.586,17.985l-2.1-.622a.424.424,0,0,1-.282-.524L11.9.307a.412.412,0,0,1,.512-.288l2.1.622a.424.424,0,0,1,.282.524L10.1,17.7a.411.411,0,0,1-.512.288ZM5.667,14.04l1.5-1.631a.429.429,0,0,0-.027-.6L4.021,9,7.135,6.2a.426.426,0,0,0,.027-.6l-1.5-1.631a.406.406,0,0,0-.584-.018L.13,8.693a.426.426,0,0,0,0,.615l4.953,4.75a.4.4,0,0,0,.584-.018Zm11.247.021,4.953-4.75a.426.426,0,0,0,0-.615L16.914,3.943a.41.41,0,0,0-.584.018l-1.5,1.631a.429.429,0,0,0,.027.6L17.976,9l-3.114,2.8a.426.426,0,0,0-.027.6l1.5,1.631a.407.407,0,0,0,.584.021Z" transform="translate(0.002 -0.003)" fill="#555"/>
</svg>
